<?xml version="1.0" standalone="no"?>
<!DOCTYPE svg PUBLIC "-//W3C//DTD SVG 20010904//EN"
 "http://www.w3.org/TR/2001/REC-SVG-20010904/DTD/svg10.dtd">
<svg version="1.0" xmlns="http://www.w3.org/2000/svg"
 width="540.000000pt" height="540.000000pt" viewBox="0 0 540.000000 540.000000"
 preserveAspectRatio="xMidYMid meet">
<metadata>
Created by potrace 1.14, written by Peter Selinger 2001-2017
</metadata>
<g transform="translate(0.000000,540.000000) scale(0.100000,-0.100000)"
fill="#000000" stroke="none">
<path d="M0 5149 c0 -262 3 -279 44 -279 24 0 19 27 -7 35 -20 7 -19 8 11 12
20 3 32 10 32 19 0 8 5 12 10 9 6 -4 8 -11 5 -16 -7 -10 10 -11 43 -3 30 9 28
34 -3 34 -27 0 -33 22 -15 50 8 13 10 13 10 -2 0 -25 20 -32 34 -12 13 17 14
16 21 -5 4 -13 17 -24 34 -27 23 -5 28 -11 25 -31 -3 -31 -7 -35 -28 -27 -12
5 -14 10 -6 19 8 9 6 14 -5 19 -9 3 -18 -1 -21 -9 -4 -8 -17 -15 -29 -15 -13
0 -27 -5 -31 -11 -3 -6 -15 -9 -25 -6 -15 4 -19 0 -19 -23 0 -23 4 -27 19 -23
10 3 22 0 25 -6 4 -6 1 -11 -6 -11 -23 0 15 -20 38 -20 12 0 35 -7 50 -15 16
-8 38 -15 49 -15 11 0 30 -7 43 -15 20 -15 21 -15 15 1 -5 15 -3 15 23 1 30
-15 79 -13 90 5 3 5 -6 21 -20 35 -25 25 -36 50 -16 38 6 -3 10 2 11 12 1 13
3 11 9 -7 l8 -25 1 24 c1 19 5 22 24 17 12 -3 28 -6 35 -6 6 0 12 -7 12 -17 0
-13 3 -12 19 5 18 22 18 22 36 2 10 -11 22 -17 26 -14 5 3 7 -1 4 -8 -4 -9 9
-14 47 -15 28 -1 55 -8 59 -14 4 -7 12 -8 20 -3 23 14 38 13 32 -2 -3 -8 -1
-14 5 -14 6 0 12 4 14 9 2 5 12 3 23 -5 17 -13 18 -16 5 -24 -12 -7 -10 -9 7
-7 12 0 19 5 17 9 -3 4 2 18 12 30 l16 23 -5 -22 c-3 -13 -1 -26 4 -29 5 -3 9
4 9 15 0 28 12 32 46 15 24 -13 50 -15 148 -9 65 4 132 13 150 20 17 7 37 10
44 8 6 -3 12 0 12 7 0 6 5 8 10 5 6 -3 10 -22 10 -41 0 -19 4 -34 10 -34 5 0
6 7 3 17 -4 11 -3 14 5 9 6 -4 20 -1 31 6 16 10 23 9 39 -5 20 -19 52 -23 52
-7 0 6 7 10 15 10 18 0 20 -16 3 -23 -8 -3 -6 -6 4 -6 10 -1 20 -11 23 -24 3
-12 24 -32 45 -45 22 -12 40 -30 40 -40 1 -16 1 -16 11 1 14 24 24 22 63 -18
20 -19 40 -35 46 -35 6 0 26 -11 44 -25 18 -14 35 -25 38 -25 3 0 24 -17 46
-37 47 -45 132 -117 142 -121 18 -7 130 -118 130 -129 0 -13 -85 -7 -105 7 -5
4 -54 11 -108 14 -55 4 -104 9 -111 12 -7 3 -17 -6 -24 -20 -11 -26 -2 -39 43
-64 11 -6 14 -12 8 -12 -21 0 -15 -17 18 -51 26 -27 39 -32 75 -32 24 0 49 5
57 11 10 8 16 9 25 0 14 -14 170 -39 204 -32 14 3 29 0 33 -6 3 -5 18 -9 33
-8 36 2 104 -21 99 -35 -10 -32 -127 -61 -188 -47 -22 5 -27 8 -12 9 12 1 25
6 28 12 5 7 -5 9 -26 7 -27 -2 -35 -8 -37 -26 -5 -31 15 -53 42 -46 13 3 29
-2 43 -15 11 -11 38 -22 59 -25 64 -7 115 -26 108 -38 -5 -7 -1 -9 9 -5 10 3
17 2 17 -3 0 -6 14 -10 30 -10 17 0 30 5 30 12 0 6 8 4 19 -6 13 -12 27 -15
45 -10 17 4 45 -2 81 -17 30 -12 58 -20 61 -16 4 4 7 23 6 42 -1 19 3 35 8 35
16 0 20 -18 10 -46 -8 -20 -7 -32 5 -50 8 -13 15 -32 15 -43 0 -26 10 -51 20
-51 5 0 4 16 -1 35 -11 37 -4 75 12 75 5 0 9 -15 10 -32 0 -18 2 -48 3 -65 2
-20 -1 -33 -8 -33 -7 0 -6 -3 2 -9 8 -5 15 -36 17 -80 3 -53 10 -79 25 -98 11
-14 20 -36 20 -48 0 -12 3 -25 7 -29 4 -4 8 -21 9 -37 1 -16 9 -38 19 -48 22
-25 47 -109 34 -116 -15 -10 -10 -23 8 -21 21 1 35 -55 33 -130 0 -32 4 -57
13 -66 21 -21 30 -97 14 -122 -19 -29 -84 -203 -92 -246 -4 -19 -13 -48 -20
-65 -7 -16 -17 -42 -23 -56 -12 -31 -90 -63 -190 -80 -37 -5 -82 -14 -101 -19
-39 -10 -319 -7 -398 5 -35 5 -53 4 -53 -2 0 -20 62 -35 241 -59 26 -3 62 -15
80 -27 19 -11 40 -22 47 -24 34 -9 48 -12 55 -12 8 -1 9 -86 1 -118 -6 -24
-69 -54 -93 -45 -10 4 -7 10 13 24 14 11 24 24 20 29 -5 9 -56 -24 -54 -36 0
-3 -6 -13 -15 -21 -8 -9 -15 -21 -15 -29 0 -15 -31 -15 -42 0 -4 6 -8 2 -8 -9
0 -11 -5 -16 -13 -13 -8 3 -20 1 -28 -4 -11 -7 -10 -9 6 -10 l20 0 -20 -9
c-14 -5 -24 -3 -32 8 -8 9 -13 11 -13 4 0 -8 -24 -12 -74 -12 -68 0 -102 10
-76 23 6 3 5 4 -2 3 -7 -2 -12 -9 -11 -15 5 -18 -22 -12 -37 9 -17 23 -26 25
-33 6 -3 -7 0 -13 6 -12 7 0 12 -3 12 -9 0 -5 -26 -10 -57 -10 -32 0 -58 3
-58 8 0 4 -12 4 -27 1 -25 -7 -27 -6 -14 9 18 22 3 22 -21 0 -18 -16 -18 -16
-12 0 7 18 -11 24 -21 7 -5 -8 -11 -7 -21 1 -11 9 -18 9 -26 1 -7 -7 -19 -12
-27 -11 -10 0 -7 4 7 9 12 5 22 14 22 20 0 5 8 10 18 11 11 0 12 2 4 6 -7 3
-19 0 -26 -6 -7 -6 -32 -12 -55 -14 -23 -1 -41 -7 -41 -14 0 -6 -9 -15 -20
-18 -17 -5 -20 -15 -20 -61 0 -30 4 -54 8 -54 5 0 7 13 4 28 -3 21 1 28 15 29
16 1 18 -4 15 -33 -4 -30 -11 -38 -33 -36 -4 1 -10 -24 -14 -54 l-7 -55 -36 3
c-36 3 -37 4 -43 53 -3 28 -7 44 -7 37 -2 -17 -22 -5 -22 13 0 8 6 12 13 9 18
-7 28 102 25 285 -2 106 -3 116 -5 48 -3 -63 -9 -97 -21 -115 -9 -14 -11 -23
-4 -19 6 5 12 7 12 5 10 -63 10 -108 1 -108 -6 0 -11 12 -11 26 0 32 -18 66
-31 58 -7 -4 -6 -10 1 -19 7 -9 6 -16 -4 -24 -11 -10 -16 -8 -21 7 -3 11 -4
26 -3 33 2 8 -11 13 -37 15 -31 2 -36 1 -22 -7 11 -7 17 -22 17 -47 l-1 -37
-18 40 c-15 32 -20 35 -20 18 -1 -24 -21 -33 -21 -10 0 8 -4 7 -11 -3 -8 -11
-12 -12 -16 -2 -2 6 -13 12 -24 12 -10 0 -19 5 -19 10 0 6 -5 10 -11 10 -5 0
-7 -5 -3 -11 4 -7 -1 -7 -16 1 -26 14 -38 6 -20 -15 8 -10 9 -15 1 -15 -6 0
-11 5 -11 10 0 21 -18 9 -26 -17 -6 -24 -8 -25 -12 -8 -2 11 -9 26 -14 33 -7
8 -7 12 1 12 8 0 6 7 -5 17 -14 15 -18 15 -28 2 -11 -14 -29 -21 -53 -22 -7 0
-14 -5 -15 -11 -5 -36 -1 -63 12 -73 13 -11 13 -12 -2 -13 -22 0 -23 -16 -2
-24 28 -11 36 -7 29 15 -5 15 -4 19 5 14 7 -4 13 1 17 14 8 33 23 25 23 -13 0
-26 -5 -36 -20 -41 -11 -3 -20 -10 -20 -15 0 -5 -18 -8 -40 -8 -27 0 -40 5
-40 14 0 10 -12 14 -38 14 -51 0 -116 58 -110 98 3 15 2 41 -2 57 -4 17 -8 23
-9 15 -1 -11 -12 -15 -41 -14 -27 0 -40 -4 -40 -13 0 -7 5 -13 10 -13 13 0 13
-56 0 -81 -6 -10 -17 -19 -25 -19 -8 0 -15 -7 -15 -15 0 -8 -4 -15 -9 -15 -5
0 -8 -32 -6 -70 3 -73 -8 -97 -30 -66 -11 15 -14 13 -24 -16 -12 -32 -13 -32
-27 -14 -17 24 -19 8 -3 -48 8 -31 8 -41 -3 -47 -20 -13 -84 -11 -96 4 -11 13
-11 71 1 83 4 4 7 21 6 38 l-1 31 -12 -37 c-12 -39 -36 -72 -36 -50 0 6 10 41
22 78 20 63 42 89 57 67 8 -12 61 -26 61 -16 0 17 -18 35 -29 29 -6 -4 -11 -3
-11 3 0 5 6 12 12 15 9 3 8 9 -6 20 -10 8 -22 13 -27 11 -4 -3 -5 4 -2 15 11
42 54 17 60 -36 2 -21 8 -41 12 -44 4 -3 14 -16 21 -29 12 -24 13 -24 26 -6
18 24 18 46 1 39 -8 -3 -20 3 -28 12 -14 17 -6 27 40 53 11 7 11 13 -1 37 -8
17 -20 28 -30 26 -9 -1 -19 5 -22 14 -5 13 -2 15 14 11 11 -3 20 -1 21 4 1 20
0 140 -1 157 -1 11 -4 9 -9 -8 -7 -22 -12 -25 -55 -23 l-47 1 3 -54 c2 -30 6
-54 11 -54 14 0 7 -37 -13 -58 -11 -12 -20 -26 -20 -32 0 -5 -4 -10 -10 -10
-5 0 -10 6 -10 13 0 8 -4 7 -10 -3 -7 -11 -8 -6 -4 18 5 27 4 31 -9 26 -12 -4
-14 -17 -11 -61 5 -48 3 -55 -15 -60 -11 -3 -26 -17 -32 -32 -10 -23 -17 -26
-48 -23 -32 3 -36 7 -38 35 -1 17 -8 34 -14 38 -15 9 -36 69 -31 91 4 19 22
25 22 8 0 -5 5 -10 11 -10 6 0 9 10 8 23 -1 12 1 30 6 40 8 19 55 24 55 5 0
-9 4 -8 10 2 14 21 12 30 -4 30 -17 0 -29 27 -20 43 5 8 2 7 -7 0 -16 -16 -33
-17 -23 -1 4 7 3 8 -4 4 -7 -4 -15 -21 -20 -38 -4 -18 -13 -33 -20 -36 -18 -6
-15 29 5 50 13 15 14 21 4 31 -10 9 -12 9 -9 -2 2 -7 -3 -16 -11 -18 -10 -4
-11 0 -6 17 5 17 4 21 -6 15 -9 -6 -11 -3 -6 9 4 10 7 22 7 27 0 6 4 7 10 4 6
-3 7 1 4 10 -4 9 -20 19 -36 22 -21 4 -27 10 -23 21 3 8 -3 23 -15 34 -23 21
-24 46 -11 252 7 104 12 132 25 142 11 8 13 14 7 19 -14 8 -14 45 -2 45 6 0
13 -5 16 -10 16 -26 22 10 23 149 1 112 -2 157 -13 178 -12 23 -15 24 -21 10
-5 -14 -17 -17 -50 -16 -44 3 -54 15 -33 36 8 8 3 30 -22 83 -35 76 -59 101
-90 93 -10 -3 -19 0 -19 6 0 6 -4 11 -10 11 -16 0 -12 -181 5 -210 8 -14 14
-35 15 -47 0 -13 5 -23 11 -23 10 0 7 -46 -8 -123 -10 -57 -25 -10 -21 67 2
42 0 76 -4 76 -5 0 -8 -79 -8 -176 l0 -175 31 3 c40 4 62 46 29 55 -18 5 -20
14 -20 74 0 68 0 69 27 69 14 0 23 -3 20 -7 -4 -3 0 -17 9 -31 14 -21 15 -49
9 -223 l-8 -199 24 -20 c23 -20 23 -21 3 -15 -33 9 -39 -40 -9 -66 17 -16 22
-32 24 -82 3 -70 11 -92 11 -29 0 43 5 48 29 33 12 -8 13 -14 3 -37 -17 -35
-9 -41 12 -9 9 14 21 25 26 25 15 0 12 -36 -5 -50 -17 -14 -21 -80 -5 -80 6 0
10 14 10 31 0 20 4 29 12 27 12 -4 12 -14 5 -93 -1 -14 -11 -22 -32 -25 -22
-4 -31 -11 -33 -28 -2 -12 -7 -22 -12 -22 -4 0 -4 16 0 35 5 23 4 40 -6 52 -7
10 -10 29 -7 42 4 17 2 22 -8 19 -7 -2 -19 -29 -25 -59 -6 -30 -14 -61 -18
-70 -4 -9 -1 -21 7 -27 8 -7 13 -23 12 -37 -2 -16 5 -29 21 -40 13 -8 24 -24
24 -35 0 -10 5 -22 10 -25 6 -3 10 -23 10 -43 0 -20 4 -51 9 -69 7 -24 6 -33
-5 -37 -8 -3 -17 0 -19 7 -2 6 -10 35 -18 62 l-15 50 2 -65 1 -65 -48 -3 c-37
-2 -49 1 -54 13 -3 10 -1 20 4 24 16 10 22 52 11 75 -6 11 -14 27 -18 35 -23
50 -27 0 -29 -389 -2 -379 -1 -410 14 -410 12 0 15 5 11 17 -6 15 -5 15 13 -1
10 -9 26 -16 34 -14 9 2 22 -6 30 -16 13 -18 16 -19 31 -4 9 9 16 26 16 38 0
15 5 20 15 17 8 -4 17 -2 21 4 4 7 10 6 19 -1 7 -6 24 -8 38 -5 16 4 26 2 30
-8 4 -10 22 -15 61 -15 30 0 63 -6 73 -12 15 -10 14 -10 -11 -5 -19 4 -37 0
-55 -12 -30 -20 -38 -22 -104 -25 -33 -2 -49 -8 -52 -19 -3 -9 -21 -20 -40
-23 -19 -4 -37 -12 -41 -17 -4 -8 1 -9 16 -4 16 5 21 4 18 -6 -6 -18 -104 -24
-124 -8 -13 11 -15 2 -12 -67 3 -79 3 -79 33 -85 21 -5 24 -7 10 -9 -11 -1
-26 -2 -33 -1 -9 2 -12 -83 -12 -394 l0 -395 155 0 c131 0 155 2 155 15 0 8 5
15 10 15 6 0 10 -8 10 -17 0 -16 2 -16 11 -3 8 11 12 12 16 3 2 -8 22 -13 45
-13 32 0 39 3 36 18 -2 9 -13 18 -26 20 -12 2 -22 8 -22 13 0 6 5 7 10 4 6 -3
10 -1 10 4 0 16 24 13 60 -7 20 -11 29 -23 26 -34 -4 -16 5 -18 85 -18 81 0
89 2 89 19 0 11 5 23 11 27 9 5 10 -1 5 -20 l-6 -26 77 1 c64 0 74 2 56 11
-13 6 -23 15 -23 21 0 5 -8 6 -17 3 -9 -4 -20 -1 -25 6 -7 10 -11 10 -14 1 -4
-9 -12 -6 -27 8 -12 11 -27 17 -34 15 -8 -3 -13 2 -13 14 0 21 -15 27 -25 10
-3 -5 -18 -10 -32 -10 -26 0 -26 0 -7 21 10 11 26 18 36 16 26 -7 30 8 8 28
-11 10 -20 24 -20 32 0 7 -9 13 -20 13 -11 0 -20 -4 -20 -8 0 -4 -25 -8 -55
-9 -36 -1 -55 3 -55 10 0 7 -4 6 -10 -3 -7 -10 -10 -11 -10 -2 0 17 37 30 98
35 44 3 56 10 91 45 21 23 47 42 55 42 9 0 16 5 16 10 0 6 11 10 25 10 14 0
25 4 25 10 0 5 9 14 20 20 16 9 20 8 20 -5 0 -8 -6 -15 -14 -15 -19 0 -27 -37
-10 -51 19 -16 18 -36 -3 -48 -17 -9 -17 -11 2 -25 20 -15 20 -15 -2 -16 -13
0 -23 5 -23 10 0 6 -8 10 -18 10 -10 0 -19 -7 -19 -15 0 -8 4 -12 8 -10 4 3 9
-1 12 -9 3 -8 -1 -13 -10 -12 -21 1 -37 -53 -18 -60 8 -3 11 -12 8 -20 -6 -16
32 -20 42 -4 3 5 16 -1 29 -15 14 -15 37 -27 55 -28 35 -2 39 -11 14 -26 -13
-8 11 -10 88 -11 92 0 108 2 115 18 4 9 6 20 6 25 -1 4 3 7 8 7 13 0 13 -17 0
-25 -34 -21 9 -25 246 -25 203 1 253 4 245 14 -6 6 -8 22 -4 34 4 18 13 22 45
22 33 0 37 -2 26 -14 -7 -8 -16 -12 -20 -9 -5 2 -8 0 -8 -6 0 -5 -3 -16 -6
-25 -6 -14 33 -16 389 -16 307 0 396 3 400 13 4 9 6 9 6 0 1 -17 1981 -19
1981 -2 0 8 4 8 13 0 9 -7 99 -11 278 -10 226 0 260 2 239 13 -14 8 -41 17
-60 20 -96 19 -220 51 -220 57 0 4 10 11 22 15 19 6 19 7 4 16 -15 9 -44 14
-90 17 -12 1 -16 6 -12 16 4 10 -1 15 -17 16 -12 1 -37 2 -55 4 -41 3 -51 -12
-16 -25 15 -6 32 -18 39 -26 6 -9 15 -14 20 -13 15 4 59 -17 74 -35 7 -8 23
-15 35 -14 34 1 81 -21 69 -33 -14 -14 -105 -1 -96 14 3 6 1 7 -5 3 -6 -3 -32
7 -59 24 -39 25 -49 28 -51 15 -5 -23 -38 -18 -56 10 -9 14 -12 25 -7 25 5 0
11 -5 13 -12 5 -14 38 -4 38 12 0 5 -8 10 -17 10 -21 1 -74 29 -55 30 23 0 12
20 -15 26 -16 3 -36 8 -47 11 -12 3 -16 1 -12 -6 4 -6 1 -11 -8 -11 -19 0 -30
17 -14 22 7 3 -9 5 -35 6 -44 2 -48 0 -42 -18 8 -25 -1 -25 -40 -2 -46 27 -62
19 -70 -38 -8 -57 -28 -80 -53 -62 -51 35 -112 53 -196 58 -76 5 -88 3 -83 -9
4 -10 -5 -20 -26 -30 -39 -18 -69 -16 -91 5 -20 21 -5 32 19 14 22 -16 65 -9
65 11 0 8 5 11 13 8 6 -4 1 3 -12 14 -13 12 -32 21 -42 21 -10 0 -19 5 -19 10
0 6 -8 10 -19 10 -22 0 -38 17 -43 45 -1 11 -9 25 -16 30 -7 6 -13 22 -12 35
0 14 0 40 0 58 0 35 21 52 43 34 23 -19 78 -19 74 0 -1 8 8 12 28 10 29 -3 29
-2 10 14 -19 16 -19 16 15 11 19 -4 48 -9 65 -12 29 -6 29 -6 11 14 -11 12
-25 21 -33 21 -24 0 -14 18 14 25 l28 7 -25 13 c-14 8 -38 14 -54 15 -16 0
-38 7 -48 17 -17 15 -18 15 -18 0 0 -10 -7 -17 -15 -17 -8 0 -15 7 -15 15 0
10 -11 15 -35 15 -48 0 -44 -12 12 -41 33 -17 41 -25 28 -28 -13 -2 -14 -5 -6
-11 7 -4 -5 -7 -28 -7 -23 0 -44 4 -47 8 -3 5 -13 9 -23 9 -10 0 -24 6 -30 14
-9 11 -4 12 31 5 24 -4 54 -8 68 -7 23 1 23 1 3 5 -13 2 -32 16 -42 29 -13 16
-27 24 -38 21 -15 -4 -15 -5 -2 -6 9 0 20 -8 23 -17 5 -12 1 -14 -17 -8 -12 4
-25 12 -30 18 -5 7 -12 5 -22 -8 -13 -17 -12 -21 12 -43 14 -14 33 -25 42 -26
10 0 16 -11 17 -29 1 -29 -20 -39 -29 -14 -3 8 -16 20 -29 27 -20 11 -21 10
-11 -3 7 -8 10 -17 7 -21 -10 -9 -34 4 -34 19 0 8 -4 14 -10 14 -5 0 -10 -9
-10 -20 0 -13 7 -20 20 -20 25 0 27 -20 3 -21 -10 0 -13 -3 -6 -5 9 -4 9 -11
1 -29 -9 -20 -14 -22 -33 -13 -23 10 -39 55 -30 80 3 7 -7 21 -22 30 -27 17
-27 17 -5 18 12 0 22 6 22 14 0 11 -13 14 -52 13 -44 -2 -53 1 -53 15 0 10 -5
22 -12 29 -6 6 -9 18 -6 25 3 8 -2 17 -11 20 -9 3 -16 11 -16 16 0 6 7 8 15 4
8 -3 15 0 15 7 0 7 -29 21 -65 32 -36 10 -65 22 -65 26 0 4 29 7 65 6 49 -1
64 -5 61 -14 -4 -9 6 -13 34 -13 21 0 50 -5 62 -11 18 -8 30 -7 51 4 27 14 27
15 6 20 -19 5 -20 8 -9 21 14 18 50 22 50 5 0 -6 8 -9 18 -7 9 2 24 -6 34 -17
21 -26 35 -13 20 20 -10 22 -9 25 8 25 11 0 20 5 20 11 0 6 -9 9 -20 6 -18 -5
-20 -2 -14 27 5 28 2 34 -15 39 -11 2 -22 0 -24 -7 -3 -7 -10 -6 -22 5 -16 16
-16 17 3 23 48 16 28 62 -41 95 -41 20 -45 25 -56 79 -24 109 -73 267 -96 315
-23 44 -24 77 -4 77 5 0 9 6 9 13 0 7 8 24 17 37 l18 25 5 -45 c3 -25 2 -60
-3 -78 -6 -26 1 -60 38 -175 61 -185 83 -226 156 -277 72 -51 177 -110 194
-110 16 0 30 -18 40 -50 7 -24 7 -24 -12 -7 -21 18 -82 21 -138 7 l-30 -8 27
-1 c28 -1 50 -21 24 -21 -20 0 -21 -19 -2 -26 8 -3 17 -12 20 -20 5 -12 1 -14
-17 -9 -22 7 -22 7 -2 -9 11 -8 34 -16 52 -16 17 0 35 -5 39 -11 5 -9 -6 -10
-40 -5 -67 10 -58 -10 12 -24 31 -7 64 -15 73 -20 9 -4 22 -4 30 0 8 6 16 5
20 -2 9 -14 107 -40 120 -32 5 3 7 10 3 15 -3 5 -9 7 -14 4 -5 -3 -20 1 -32 9
-13 8 -41 16 -63 17 -22 2 -53 9 -70 16 l-30 12 30 2 c17 1 35 1 42 0 6 -1 14
3 18 9 3 5 -1 10 -9 10 -19 0 -22 20 -3 20 7 1 5 6 -5 14 -25 19 -22 26 10 27
27 1 27 1 3 8 -14 4 -26 12 -28 18 -5 15 96 -23 122 -46 11 -10 29 -23 40 -29
18 -10 17 -11 -12 -12 -17 0 -35 5 -38 10 -4 7 -13 7 -26 0 -19 -10 -19 -12
-2 -34 12 -16 20 -20 25 -12 5 7 12 4 22 -9 15 -19 15 -19 16 7 0 25 2 27 24
18 14 -5 27 -5 32 0 6 6 28 0 55 -14 41 -20 44 -24 28 -34 -10 -6 -20 -8 -23
-3 -3 5 -18 11 -33 14 -16 3 -36 9 -45 12 -32 12 -20 -20 15 -40 25 -15 28
-20 14 -23 -10 -2 -25 2 -34 10 -15 11 -16 11 -10 -4 3 -10 2 -18 -3 -18 -6 0
-10 -4 -10 -9 0 -5 16 -9 35 -9 19 0 32 4 29 9 -3 5 2 9 11 9 9 0 14 -4 11 -9
-7 -11 17 -21 50 -21 14 0 27 -7 30 -15 4 -8 12 -15 20 -15 8 0 32 -11 53 -24
30 -19 47 -23 78 -19 25 3 43 1 47 -6 4 -6 25 -11 47 -11 23 0 55 -9 77 -22
20 -13 58 -34 85 -48 37 -19 43 -26 30 -31 -10 -4 -34 0 -53 7 -19 8 -51 16
-70 18 -19 3 -37 5 -40 6 -3 1 -13 1 -23 0 -10 -1 -29 6 -42 14 -13 9 -32 16
-42 16 -14 0 -12 -3 7 -17 14 -9 27 -20 30 -24 6 -8 123 -31 168 -32 17 0 32
-4 32 -8 0 -4 19 -10 43 -14 23 -4 47 -10 52 -13 6 -4 45 -18 87 -33 85 -29
147 -66 149 -89 0 -10 2 -11 6 -3 3 9 14 6 36 -10 18 -12 41 -28 52 -35 11 -7
34 -21 50 -32 27 -18 47 -20 208 -20 l177 0 0 1180 0 1180 -42 0 c-23 0 -49 7
-58 15 -12 11 -45 17 -104 20 -48 2 -94 9 -102 15 -8 8 -27 10 -50 6 -24 -5
-43 -3 -58 8 -18 11 -26 12 -35 3 -14 -14 -79 7 -98 32 -12 15 -14 15 -26 0
-10 -14 -22 -15 -76 -8 -36 5 -69 5 -75 0 -16 -12 -119 -14 -111 -1 3 5 17 10
30 10 22 0 35 17 35 46 0 8 -5 14 -12 14 -6 0 -9 -3 -5 -6 10 -10 -20 -34 -43
-34 -12 0 -24 -9 -29 -22 -10 -26 -63 -68 -84 -68 -8 0 -20 -7 -27 -15 -11
-13 -7 -15 29 -15 24 0 40 -4 36 -9 -9 -16 27 -29 70 -25 59 6 133 -6 151 -23
20 -21 -1 -36 -30 -21 -15 8 -22 7 -31 -5 -10 -14 -13 -14 -25 4 -18 24 -30
24 -30 1 0 -15 -7 -19 -37 -18 -20 1 -38 6 -40 11 -2 7 -52 6 -139 0 -153 -11
-158 -14 -147 -88 3 -22 1 -37 -5 -37 -5 0 -12 -9 -15 -20 -3 -14 -14 -20 -32
-20 -15 0 -24 4 -20 10 4 6 10 8 15 5 16 -10 2 181 -16 222 -9 21 -27 72 -40
113 -30 96 -19 109 40 51 35 -34 48 -42 66 -36 15 5 20 3 16 -3 -3 -6 -1 -14
5 -18 7 -4 9 -19 5 -38 l-6 -31 26 26 c15 15 27 39 28 55 2 35 14 56 27 48 6
-3 13 3 16 15 7 26 30 27 38 2 6 -19 33 -31 73 -31 15 0 22 5 19 13 -2 7 -18
11 -41 9 -33 -3 -37 -2 -29 13 5 9 21 22 34 29 17 9 23 19 21 36 -4 37 -40 69
-119 107 -82 39 -90 56 -50 107 20 25 26 27 44 17 36 -19 43 -13 43 33 0 49
11 64 30 41 7 -8 18 -15 25 -15 21 0 54 -48 65 -94 6 -22 16 -59 22 -80 l12
-39 12 28 c20 49 8 167 -25 240 -17 36 -34 65 -40 65 -6 0 -26 14 -44 30 -19
17 -42 30 -51 30 -8 0 -14 6 -13 13 2 6 -1 2 -7 -10 -11 -25 -21 -29 -31 -13
-8 13 -72 13 -80 0 -4 -6 -16 -3 -31 7 -22 14 -50 22 -137 40 -15 3 -33 1 -40
-5 -8 -7 -18 -7 -27 -2 -19 12 -30 3 -30 -24 0 -24 -54 -71 -70 -61 -6 3 -10
-4 -10 -16 0 -19 2 -20 18 -8 9 8 19 17 22 21 3 3 19 9 35 13 l30 6 -27 -18
c-16 -10 -28 -21 -28 -24 0 -4 19 -10 42 -14 67 -12 138 -68 138 -109 0 -17
-5 -18 -62 -11 -35 5 -92 9 -127 9 -57 1 -65 3 -72 24 -6 15 -5 21 1 17 14 -9
12 1 -6 38 l-17 31 -20 -54 c-31 -85 -50 -101 -61 -53 -4 14 -3 29 1 32 16 11
43 61 34 61 -5 0 -10 8 -10 18 0 9 -2 29 -4 45 -2 15 0 30 4 33 14 8 4 64 -17
87 l-18 22 -7 -33 c-9 -46 -19 -53 -12 -8 3 20 2 36 -3 36 -29 -2 -144 -100
-144 -123 0 -14 66 -47 95 -47 10 0 12 -7 5 -27 -12 -42 -32 -83 -41 -83 -4 0
-11 -9 -14 -20 -3 -11 -12 -20 -19 -20 -11 0 -31 -38 -49 -92 -4 -10 -14 -18
-23 -18 -12 0 -15 -7 -12 -25 3 -14 1 -28 -3 -31 -5 -3 -9 -22 -9 -42 0 -27
-3 -33 -10 -22 -14 22 -24 -12 -17 -59 l5 -37 -52 4 -51 4 -22 -43 c-12 -24
-22 -37 -22 -27 -1 11 -7 15 -21 11 -18 -5 -19 -2 -14 26 7 33 -10 43 -34 19
-9 -9 -12 -9 -13 3 -1 7 -1 18 0 23 5 24 -9 34 -36 27 -19 -5 -28 -14 -29 -30
-2 -29 -11 -36 -28 -21 -15 12 -19 90 -4 90 3 0 4 9 1 20 -3 11 -2 28 2 37 8
21 13 83 19 260 4 107 3 133 -9 143 -19 16 -19 39 0 60 14 15 13 19 -5 40 -11
12 -17 28 -13 34 9 13 4 79 -6 86 -4 3 -18 25 -32 50 -13 25 -31 50 -39 57
-12 9 -13 14 -2 24 19 20 14 45 -23 113 -26 47 -35 75 -33 105 1 22 5 38 10
35 16 -10 8 23 -17 70 -14 26 -25 63 -25 83 0 20 -6 44 -14 52 -7 9 -26 52
-41 96 -15 44 -34 92 -42 107 -7 15 -14 31 -14 35 -1 5 -9 19 -19 33 -9 14
-32 52 -49 85 -18 33 -36 67 -41 75 -24 38 -76 132 -112 200 -22 41 -73 125
-114 187 -41 62 -74 114 -74 117 0 20 -125 173 -193 235 -45 42 -104 99 -132
127 -49 50 -160 134 -220 168 -16 9 -45 28 -64 41 l-34 25 -923 0 -924 0 0
-251z m77 -45 c-3 -3 -12 -4 -19 -1 -8 3 -5 6 6 6 11 1 17 -2 13 -5z m251
-189 c-3 -3 -9 2 -12 12 -6 14 -5 15 5 6 7 -7 10 -15 7 -18z m62 -35 c0 -5 -4
-10 -10 -10 -5 0 -10 5 -10 10 0 6 5 10 10 10 6 0 10 -4 10 -10z m1104 -8 c-6
-4 -13 -15 -17 -24 -3 -10 -11 -18 -17 -18 -6 0 -8 6 -4 13 14 25 27 37 38 37
8 0 8 -3 0 -8z m-1134 -22 c0 -5 -5 -10 -11 -10 -5 0 -7 5 -4 10 3 6 8 10 11
10 2 0 4 -4 4 -10z m934 -19 c3 -5 -1 -11 -9 -15 -9 -3 -15 0 -15 9 0 16 16
20 24 6z m236 -95 c0 -3 -4 -8 -10 -11 -5 -3 -10 -1 -10 4 0 6 5 11 10 11 6 0
10 -2 10 -4z m80 -56 c0 -23 -8 -25 -33 -6 -14 11 -15 15 -5 19 26 11 38 7 38
-13z m143 -100 c-3 -11 -9 -17 -14 -14 -14 8 -10 34 5 34 9 0 12 -7 9 -20z
m-1652 -1390 c5 0 9 -15 9 -34 0 -19 5 -36 11 -38 13 -4 2 -158 -12 -158 -5 0
-9 9 -9 20 0 11 -5 20 -11 20 -8 0 -10 12 -6 34 3 22 0 42 -12 59 -15 23 -17
42 -12 96 0 8 7 11 17 7 9 -3 20 -6 25 -6z m44 -438 c-8 -8 -25 10 -25 26 0
13 2 13 14 -4 8 -10 13 -21 11 -22z m3806 -35 c13 -27 34 -63 46 -80 24 -32
30 -53 13 -42 -5 3 -10 0 -11 -7 0 -7 -5 1 -10 17 -4 17 -22 45 -38 62 -16 18
-33 42 -36 54 -11 33 -16 16 -5 -20 8 -29 7 -31 -7 -19 -13 10 -43 67 -43 81
0 2 15 3 34 3 31 0 36 -4 57 -49z m756 -294 c-9 -9 -19 -14 -23 -11 -10 10 6
28 24 28 15 0 15 -1 -1 -17z m-197 -27 c0 -3 -4 -8 -10 -11 -5 -3 -10 -1 -10
4 0 6 5 11 10 11 6 0 10 -2 10 -4z m-378 -109 c26 -51 40 -127 26 -144 -6 -7
-11 -32 -13 -56 -5 -74 -101 -234 -133 -222 -9 3 -13 3 -10 -1 4 -4 -4 -16
-18 -27 -20 -15 -28 -17 -34 -7 -4 7 -13 9 -20 5 -7 -4 -13 1 -17 14 -3 11
-13 20 -22 19 -37 -3 -51 3 -51 21 0 11 -4 23 -10 26 -5 3 -10 15 -10 27 0 21
29 89 42 99 4 3 10 27 13 55 4 33 12 53 25 63 11 7 20 20 20 27 0 8 10 14 25
14 14 0 25 6 25 13 0 13 40 43 53 39 4 -1 7 3 7 9 0 5 4 8 9 4 5 -3 13 5 17
17 8 27 36 57 47 51 4 -2 17 -23 29 -46z m-1660 -46 c2 -36 0 -47 -9 -44 -15
6 -18 93 -4 93 5 0 11 -22 13 -49z m2248 -61 c0 -5 -2 -10 -4 -10 -3 0 -8 5
-11 10 -3 6 -1 10 4 10 6 0 11 -4 11 -10z m-2149 -21 c5 -8 8 -23 8 -34 -1
-17 -2 -17 -6 -2 -2 9 -9 17 -14 17 -5 0 -9 7 -9 15 0 20 -10 19 -26 -2 -12
-16 -13 -16 -14 -1 0 9 -6 18 -12 21 -7 3 4 4 26 2 21 -1 42 -9 47 -16z m-81
-9 c13 -11 30 -20 39 -21 9 -1 5 -5 -9 -9 -24 -8 -23 -8 8 -9 25 -1 32 -5 32
-21 0 -17 -6 -20 -42 -19 -30 1 -36 3 -18 7 l25 5 -25 7 c-20 5 -24 11 -22 33
2 15 -1 27 -7 27 -6 0 -11 5 -11 10 0 14 4 13 30 -10z m2230 -16 c0 -19 4 -25
15 -20 20 7 19 -8 0 -24 -9 -7 -15 -23 -13 -34 2 -17 10 -21 38 -22 33 0 35
-2 35 -33 0 -43 -24 -60 -58 -42 -33 17 -47 7 -47 -32 -1 -26 -2 -29 -11 -15
-7 12 -6 24 1 38 6 12 10 31 7 43 -3 18 -5 16 -14 -13 l-11 -35 0 40 c0 22 4
51 8 65 l8 25 1 -28 c1 -23 3 -26 15 -15 10 9 11 20 5 37 -11 26 -2 91 12 91
5 0 9 -12 9 -26z m-2288 -36 c-13 -13 -26 8 -17 30 6 16 7 16 17 -1 7 -13 7
-22 0 -29z m1750 -57 c-6 -61 -20 -59 -24 3 -2 46 -1 53 12 46 11 -6 15 -20
12 -49z m-1753 15 c-1 -18 -2 -18 -6 -3 -3 11 -11 16 -18 13 -9 -3 -12 0 -9 9
8 21 34 6 33 -19z m-146 17 c9 -9 -13 -34 -24 -27 -14 8 -11 34 4 34 8 0 17
-3 20 -7z m315 -5 c-2 -6 -10 -14 -16 -16 -7 -2 -10 2 -6 12 7 18 28 22 22 4z
m1932 -25 c0 -28 -3 -34 -10 -23 -13 20 -13 60 0 60 6 0 10 -17 10 -37z
m-1980 -24 c0 -6 -4 -7 -10 -4 -5 3 -10 11 -10 16 0 6 5 7 10 4 6 -3 10 -11
10 -16z m80 11 c0 -5 -5 -10 -11 -10 -5 0 -7 5 -4 10 3 6 8 10 11 10 2 0 4 -4
4 -10z m-923 -47 c-4 -17 -4 -17 -12 0 -4 9 -4 25 0 35 8 16 8 16 12 0 3 -10
3 -26 0 -35z m-467 27 c0 -5 -2 -10 -4 -10 -3 0 -8 5 -11 10 -3 6 -1 10 4 10
6 0 11 -4 11 -10z m-70 -10 c0 -5 -5 -10 -11 -10 -5 0 -7 5 -4 10 3 6 8 10 11
10 2 0 4 -4 4 -10z m210 0 c0 -5 -4 -10 -10 -10 -5 0 -10 5 -10 10 0 6 5 10
10 10 6 0 10 -4 10 -10z m610 -26 c0 -19 -16 -18 -24 2 -11 27 -7 37 9 24 8
-7 15 -19 15 -26z m244 27 c3 -4 -2 -27 -11 -49 -13 -34 -20 -41 -39 -40 -16
2 -24 9 -24 21 0 15 -3 17 -13 8 -17 -13 -27 -5 -27 22 0 17 2 18 16 6 13 -10
17 -10 24 0 5 9 10 10 14 2 12 -19 26 -12 26 14 0 24 23 35 34 16z m132 -6 c6
-14 -3 -52 -10 -44 -2 2 -6 16 -10 32 -7 29 10 39 20 12z m68 9 c12 -5 13 -9
3 -25 -6 -10 -15 -19 -18 -19 -10 0 -20 30 -13 41 6 11 8 11 28 3z m-1108 -31
c-3 -8 -6 -17 -6 -19 0 -2 -4 -4 -10 -4 -5 0 -10 11 -10 25 0 18 4 23 16 18 8
-3 13 -12 10 -20z m3221 -5 c-1 -18 2 -47 7 -65 7 -29 11 -32 40 -31 47 2 59
-9 52 -46 -7 -37 1 -51 21 -35 7 6 13 9 13 5 0 -3 23 3 51 15 29 11 54 18 56
15 27 -26 -176 -109 -272 -110 l-40 -1 0 55 c0 53 1 55 28 58 29 4 34 11 15
30 -9 9 -9 12 1 12 8 0 12 13 10 43 -2 37 7 87 15 87 2 0 3 -15 3 -32z m-2677
-4 c0 -8 -4 -14 -10 -14 -5 0 -10 9 -10 21 0 11 5 17 10 14 6 -3 10 -13 10
-21z m810 16 c0 -5 -2 -10 -4 -10 -3 0 -8 5 -11 10 -3 6 -1 10 4 10 6 0 11 -4
11 -10z m-635 -21 c4 -6 5 -12 2 -15 -7 -7 -37 7 -37 17 0 13 27 11 35 -2z
m2580 -10 c10 -15 -1 -23 -20 -15 -9 3 -13 10 -10 16 8 13 22 13 30 -1z
m-2145 -13 c0 -8 -4 -18 -10 -21 -5 -3 -10 3 -10 14 0 12 5 21 10 21 6 0 10
-6 10 -14z m-370 -6 c0 -5 -8 -10 -17 -10 -15 0 -16 2 -3 10 19 12 20 12 20 0z
m-1082 -32 c-5 -34 -38 -37 -38 -4 0 20 5 26 21 26 15 0 20 -5 17 -22z m3115
-3 c-4 -15 -36 -12 -41 3 -3 9 3 13 19 10 13 -1 23 -7 22 -13z m-1789 -3 c2
-4 -4 -9 -15 -9 -11 -1 -17 2 -14 8 7 11 22 12 29 1z m-1399 -12 c-3 -5 -11
-10 -16 -10 -6 0 -7 5 -4 10 3 6 11 10 16 10 6 0 7 -4 4 -10z m795 -20 c0 -13
-7 -20 -20 -20 -19 0 -27 20 -13 33 13 14 33 6 33 -13z m3252 -10 c6 -38 -9
-64 -16 -29 -6 32 -4 59 5 59 3 0 9 -13 11 -30z m-3762 10 c0 -5 -4 -10 -10
-10 -5 0 -10 5 -10 10 0 6 5 10 10 10 6 0 10 -4 10 -10z m3010 -24 c37 -6 38
-8 45 -54 8 -59 32 -73 110 -65 51 5 54 5 48 -16 -3 -11 -10 -22 -17 -22 -6
-1 -18 -2 -26 -3 -8 -1 -20 2 -27 7 -6 5 -20 8 -30 7 -10 -1 -20 -1 -23 0 -3
1 -32 4 -65 5 -33 2 -76 9 -95 14 -19 6 -44 12 -55 13 -16 3 -21 12 -23 47 -2
24 2 49 7 54 8 8 11 3 11 -16 0 -36 28 -36 32 1 2 19 9 28 26 30 13 2 26 11
30 20 6 16 7 16 10 1 2 -11 17 -19 42 -23z m580 18 c0 -8 -4 -12 -10 -9 -5 3
-10 10 -10 16 0 5 5 9 10 9 6 0 10 -7 10 -16z m-2511 -31 c2 -1 -10 0 -25 1
-16 2 -38 5 -49 6 -14 2 -12 4 10 9 17 4 37 3 45 -3 8 -6 17 -11 19 -13z
m-1432 -5 c-3 -8 -6 -5 -6 6 -1 11 2 17 5 13 3 -3 4 -12 1 -19z m293 8 c0 -3
-4 -8 -10 -11 -5 -3 -10 -1 -10 4 0 6 5 11 10 11 6 0 10 -2 10 -4z m1557 -32
c-3 -3 -12 -4 -19 -1 -8 3 -5 6 6 6 11 1 17 -2 13 -5z m46 -1 c-7 -2 -19 -2
-25 0 -7 3 -2 5 12 5 14 0 19 -2 13 -5z m-1038 -21 c0 -18 -20 -15 -23 4 -3
10 1 15 10 12 7 -3 13 -10 13 -16z m2202 -4 c-3 -8 -6 -5 -6 6 -1 11 2 17 5
13 3 -3 4 -12 1 -19z m123 -18 c0 -5 -4 -10 -10 -10 -5 0 -10 5 -10 10 0 6 5
10 10 10 6 0 10 -4 10 -10z m712 -30 c-3 -22 -9 -30 -19 -26 -8 3 -19 6 -24 6
-17 0 -9 28 14 43 29 19 35 15 29 -23z m-4418 -5 c-4 -8 -8 -15 -10 -15 -2 0
-4 7 -4 15 0 8 4 15 10 15 5 0 7 -7 4 -15z m2401 5 c3 -5 1 -10 -4 -10 -6 0
-11 5 -11 10 0 6 2 10 4 10 3 0 8 -4 11 -10z m1943 -18 c-9 -11 -9 -13 -1 -9
6 4 14 3 17 -2 3 -5 -7 -11 -22 -14 -28 -5 -47 2 -24 10 6 3 12 13 12 24 0 12
5 16 15 13 13 -5 13 -9 3 -22z m-4226 -41 c4 -40 -9 -47 -41 -22 -24 18 -24
18 -5 50 15 25 21 28 31 18 7 -6 14 -27 15 -46z m1048 -7 l0 -65 -37 3 -38 3
2 45 c1 25 2 50 2 57 1 12 21 20 54 22 15 1 17 -8 17 -65z m2490 62 c0 -3 -4
-8 -10 -11 -5 -3 -10 -1 -10 4 0 6 5 11 10 11 6 0 10 -2 10 -4z m556 -28 c5
-8 2 -9 -9 -5 -9 3 -19 2 -22 -4 -4 -5 -11 -6 -17 -3 -6 4 -5 10 3 15 19 12
37 11 45 -3z m-76 -2 c0 -11 -19 -15 -25 -6 -3 5 1 10 9 10 9 0 16 -2 16 -4z
m265 -26 c3 -5 1 -10 -4 -10 -6 0 -11 5 -11 10 0 6 2 10 4 10 3 0 8 -4 11 -10z
m-103 -62 c-11 -11 -158 -18 -214 -11 -71 9 -38 19 74 21 62 2 114 5 116 7 2
2 11 1 19 -2 9 -4 11 -9 5 -15z m88 7 c0 -10 -10 -15 -30 -15 -36 0 -38 7 -7
20 32 13 37 12 37 -5z m-4680 -261 c0 -8 -4 -14 -10 -14 -5 0 -10 9 -10 21 0
11 5 17 10 14 6 -3 10 -13 10 -21z m3118 -126 c-3 -47 -21 -55 -26 -12 -4 31
4 54 18 54 7 0 10 -17 8 -42z m-2963 12 c3 -5 2 -10 -4 -10 -5 0 -13 5 -16 10
-3 6 -2 10 4 10 5 0 13 -4 16 -10z m1891 -37 c-10 -10 -19 5 -10 18 6 11 8 11
12 0 2 -7 1 -15 -2 -18z m-1206 -25 c0 -5 15 -15 33 -23 l32 -15 -34 5 c-18 3
-55 5 -81 5 -31 0 -56 6 -69 18 -21 17 -20 17 49 17 38 0 70 -3 70 -7z m-772
-26 c6 -18 -15 -14 -22 4 -4 10 -1 14 6 12 6 -2 14 -10 16 -16z m282 -1 c0
-19 -20 -22 -47 -7 l-28 15 38 1 c20 0 37 -4 37 -9z m-145 -8 c-11 -3 -26 -10
-32 -15 -10 -8 -13 -6 -13 6 0 12 9 16 33 15 21 -1 25 -3 12 -6z m1038 0 c-7
-2 -19 -2 -25 0 -7 3 -2 5 12 5 14 0 19 -2 13 -5z m1283 -40 c-11 -12 -27 13
-20 32 7 17 8 17 17 -3 6 -12 7 -25 3 -29z m-1956 21 c0 -2 -14 -4 -31 -4 -16
0 -28 4 -25 9 5 8 56 3 56 -5z m892 4 c23 -1 33 -5 25 -10 -8 -6 -5 -10 10
-14 13 -4 21 -9 18 -13 -7 -12 -159 9 -170 23 -6 8 -19 16 -30 19 -11 3 9 4
45 1 36 -2 82 -5 102 -6z m209 -28 c24 -7 52 -19 61 -27 10 -9 23 -13 30 -11
7 3 24 1 38 -5 14 -6 41 -12 60 -13 19 -2 50 -6 68 -10 21 -4 32 -2 32 5 0 6
-7 11 -15 11 -8 0 -15 5 -15 10 0 13 17 13 25 -1 4 -5 17 -9 28 -8 12 0 31 1
42 0 19 -2 18 -3 -4 -15 -23 -13 -22 -13 20 -24 24 -6 59 -14 77 -17 18 -4 32
-13 32 -21 0 -8 9 -14 20 -14 13 0 18 5 14 15 -8 21 50 9 92 -20 17 -12 65
-27 105 -35 71 -13 110 -28 79 -32 -50 -5 -70 -4 -70 3 0 5 -12 4 -27 -2 -31
-12 -50 -17 -102 -26 -25 -4 -32 -3 -27 6 4 6 12 9 17 5 5 -3 16 0 24 6 8 7
24 10 35 7 21 -6 28 11 8 18 -7 2 -34 6 -59 8 -25 3 -58 13 -73 22 -22 15 -29
15 -43 4 -15 -12 -16 -12 -10 4 5 13 1 17 -17 17 -12 0 -26 3 -29 7 -4 3 -31
7 -60 9 -72 3 -132 11 -197 28 -30 8 -57 12 -60 9 -3 -3 1 -8 8 -10 13 -5 17
-33 4 -33 -5 0 -19 11 -32 25 -13 14 -33 25 -46 25 -12 0 -27 7 -34 15 -20 24
-77 47 -99 40 -10 -3 -22 -1 -26 5 -3 5 -1 10 6 10 8 0 8 4 -1 15 -11 14 -7
15 32 11 24 -2 64 -10 89 -16z m1990 -47 c-9 -17 -10 -17 -16 0 -4 9 -4 29 0
45 l7 27 10 -27 c6 -18 6 -34 -1 -45z m-3014 51 c-3 -3 -12 -4 -19 -1 -8 3 -5
6 6 6 11 1 17 -2 13 -5z m180 -41 c23 -12 54 -23 68 -23 16 0 24 -4 19 -11 -6
-10 -26 -9 -106 7 -15 3 -30 14 -33 25 -4 10 -13 19 -20 19 -8 0 -17 5 -20 10
-10 16 43 1 92 -27z m293 17 c0 -5 -4 -10 -10 -10 -5 0 -10 5 -10 10 0 6 5 10
10 10 6 0 10 -4 10 -10z m113 -14 c21 -21 22 -26 9 -31 -8 -3 -18 -1 -21 4 -4
5 -19 15 -34 20 -16 6 -25 15 -22 21 11 18 43 11 68 -14z m1027 8 c0 -8 -5
-12 -10 -9 -6 4 -8 11 -5 16 9 14 15 11 15 -7z m-1530 -6 c0 -6 -3 -8 -6 -5
-4 3 -15 2 -25 -4 -18 -9 -26 0 -12 14 11 11 43 8 43 -5z m-70 -2 c0 -11 -19
-15 -25 -6 -3 5 1 10 9 10 9 0 16 -2 16 -4z m1502 -28 c46 -17 58 -28 32 -28
-11 0 -25 5 -31 11 -6 6 -32 10 -57 8 -38 -4 -46 -1 -46 13 0 20 42 19 102 -4z
m-1777 -8 c-40 -10 -77 -12 -72 -2 3 4 27 8 54 9 40 1 43 0 18 -7z m245 -21
c0 -6 -4 -7 -10 -4 -5 3 -10 11 -10 16 0 6 5 7 10 4 6 -3 10 -11 10 -16z m90
4 c25 -3 52 -10 60 -15 10 -6 -1 -7 -30 -2 -25 4 -58 7 -74 8 -16 1 -31 7 -34
15 -3 10 0 12 14 7 10 -4 39 -10 64 -13z m2215 1 c32 -21 85 -34 165 -40 42
-3 68 -10 73 -20 10 -18 71 -44 103 -44 17 0 29 10 43 38 l19 37 -3 -50 c-4
-62 7 -90 42 -110 15 -9 19 -14 9 -10 -11 3 -40 8 -65 11 -26 3 -62 10 -81 16
-19 7 -41 11 -48 9 -11 -2 -12 7 -7 38 4 25 3 41 -3 41 -12 0 -22 -23 -23 -53
0 -12 -3 -16 -6 -9 -4 10 -8 10 -19 1 -11 -9 -14 -7 -14 9 0 20 -13 35 -42 45
-15 5 -15 3 -2 -31 l15 -37 -26 30 -25 30 -140 0 -140 0 -2 28 c-1 15 -2 35
-2 45 -1 9 5 16 13 14 7 -1 19 2 27 9 7 6 19 7 26 3 6 -4 23 -8 36 -9 25 -1
44 -23 37 -42 -6 -18 9 -24 44 -17 l30 6 -39 32 c-21 17 -39 34 -39 39 -1 12
18 8 44 -9z m-2622 -8 c18 -14 17 -14 -2 -21 -12 -3 -31 -3 -43 1 -21 6 -21 7
-3 20 23 17 25 17 48 0z m176 -32 c-8 -8 -24 -11 -37 -8 -33 9 -27 24 8 18 25
-5 30 -3 31 12 0 12 2 14 6 6 3 -8 -1 -20 -8 -28z m526 16 c3 -5 1 -10 -4 -10
-6 0 -11 5 -11 10 0 6 2 10 4 10 3 0 8 -4 11 -10z m-155 -32 c0 -10 -3 -10
-35 2 -14 5 -24 14 -20 20 7 11 55 -8 55 -22z m85 12 c6 -5 35 -13 65 -18 45
-8 56 -7 65 5 9 12 22 14 51 9 21 -3 48 -7 59 -9 11 -1 23 -6 27 -12 4 -6 8
-2 8 8 0 19 15 23 25 6 9 -14 5 -17 -30 -23 -70 -13 -194 -16 -240 -6 -27 7
-61 13 -73 14 -22 2 -41 21 -42 39 0 9 70 -2 85 -13z m1393 0 c14 0 14 -2 3
-9 -16 -10 -51 -3 -51 11 0 6 7 7 16 4 9 -3 23 -6 32 -6z m-1784 -15 c-5 -11
1 -15 25 -15 17 0 30 3 30 8 -4 21 3 23 21 7 30 -27 25 -33 -31 -29 -55 3 -82
-3 -74 -17 3 -4 13 -5 23 -2 12 5 10 -1 -8 -20 -20 -21 -26 -23 -33 -11 -4 7
-7 22 -5 31 2 13 -3 17 -17 15 -17 -3 -17 -1 5 15 14 10 28 17 33 15 4 -1 7 3
7 8 0 6 7 10 15 10 9 0 12 -6 9 -15z m976 -26 c18 -10 3 -11 -39 -3 -17 4 -31
11 -31 15 0 10 45 2 70 -12z m230 11 c12 -8 9 -10 -12 -10 -16 0 -28 5 -28 10
0 13 20 13 40 0z m240 0 c0 -5 -7 -10 -15 -10 -8 0 -15 5 -15 10 0 6 7 10 15
10 8 0 15 -4 15 -10z m-1840 -4 c0 -11 -19 -15 -25 -6 -3 5 1 10 9 10 9 0 16
-2 16 -4z m555 -6 c3 -5 -1 -10 -9 -10 -9 0 -16 5 -16 10 0 6 4 10 9 10 6 0
13 -4 16 -10z m88 -7 c-7 -2 -21 -2 -30 0 -10 3 -4 5 12 5 17 0 24 -2 18 -5z
m-743 -30 c0 -5 -7 -16 -15 -26 -7 -11 -11 -25 -9 -32 3 -7 1 -16 -4 -19 -6
-3 -12 0 -15 8 -3 8 -19 17 -36 21 -35 8 -32 35 4 35 13 0 27 5 30 10 7 12 45
14 45 3z m74 -23 c-31 -12 -48 -38 -35 -53 15 -18 6 -25 -24 -19 -28 5 -36 42
-9 42 13 0 14 3 5 14 -9 11 -6 15 14 20 14 4 25 11 25 17 0 6 8 5 22 -2 22
-12 22 -12 2 -19z m1271 9 c11 -17 0 -20 -21 -4 -17 13 -17 14 -2 15 9 0 20
-5 23 -11z m72 -5 c-3 -3 -12 -4 -19 -1 -8 3 -5 6 6 6 11 1 17 -2 13 -5z
m3097 -9 c3 -8 1 -15 -4 -15 -6 0 -10 7 -10 15 0 8 2 15 4 15 2 0 6 -7 10 -15z
m-3464 -4 c0 -14 -18 -23 -31 -15 -8 4 -7 9 2 15 18 11 29 11 29 0z m-915 -19
c-3 -3 -11 0 -18 7 -9 10 -8 11 6 5 10 -3 15 -9 12 -12z m445 2 c0 -8 -4 -12
-10 -9 -5 3 -10 10 -10 16 0 5 5 9 10 9 6 0 10 -7 10 -16z m2760 6 c0 -5 -4
-10 -10 -10 -5 0 -10 5 -10 10 0 6 5 10 10 10 6 0 10 -4 10 -10z m-2794 -26
c-3 -9 -6 -20 -6 -25 0 -5 -12 -9 -27 -9 l-26 0 23 25 c27 28 45 33 36 9z
m1989 2 c10 -7 27 -11 37 -8 10 2 18 -1 18 -7 0 -7 -5 -9 -12 -5 -7 4 -4 -2 6
-14 15 -17 31 -22 70 -23 49 -1 50 -1 16 -9 -19 -5 -37 -7 -40 -5 -4 2 -20 6
-36 9 -16 3 -38 17 -49 31 -12 14 -29 25 -38 25 -10 0 -15 5 -12 10 8 13 18
13 40 -4z m220 -6 c3 -5 1 -10 -4 -10 -6 0 -11 5 -11 10 0 6 2 10 4 10 3 0 8
-4 11 -10z m1122 -12 c-3 -8 -6 -5 -6 6 -1 11 2 17 5 13 3 -3 4 -12 1 -19z
m-748 -1 c-9 -7 -16 -20 -16 -29 0 -14 3 -15 16 -6 9 7 21 19 28 26 10 13 17
10 42 -17 27 -29 23 -41 -8 -22 -8 5 -20 7 -28 4 -10 -4 -8 -10 9 -25 l23 -20
-23 7 c-13 4 -34 8 -46 9 -25 3 -76 44 -76 60 0 6 5 4 10 -4 6 -9 10 -11 10
-3 0 7 7 10 17 6 12 -5 15 -2 10 10 -5 13 -1 17 21 17 23 -1 25 -2 11 -13z
m-1004 -15 c-3 -3 -11 0 -18 7 -9 10 -8 11 6 5 10 -3 15 -9 12 -12z m-113 -4
c-9 -9 -15 -9 -24 0 -9 9 -7 12 12 12 19 0 21 -3 12 -12z m-117 -8 c7 -11 -9
-11 -45 0 -24 8 -24 8 7 9 17 1 35 -3 38 -9z m-1862 -18 c13 -19 -3 -34 -29
-28 -14 4 -33 2 -44 -4 -15 -8 -20 -8 -20 1 0 6 -7 8 -16 5 -23 -9 -36 3 -21
19 25 24 116 30 130 7z m2826 -3 c31 -19 38 -38 9 -27 -7 3 -17 6 -23 8 -15 3
-35 21 -35 31 0 14 12 11 49 -12z m-2444 1 c3 -5 2 -10 -4 -10 -5 0 -13 5 -16
10 -3 6 -2 10 4 10 5 0 13 -4 16 -10z m715 -22 c0 -3 -3 -13 -6 -22 -7 -18
-59 -22 -69 -6 -4 6 -12 10 -18 9 -18 -2 -57 12 -53 20 5 8 146 8 146 -1z
m263 -5 c-7 -2 -19 -2 -25 0 -7 3 -2 5 12 5 14 0 19 -2 13 -5z m731 -25 c7 -5
4 -8 -7 -8 -10 0 -25 6 -33 14 -12 13 -12 15 4 18 9 2 19 -1 21 -7 2 -5 9 -13
15 -17z m-679 12 c-3 -5 -10 -10 -16 -10 -5 0 -9 5 -9 10 0 6 7 10 16 10 8 0
12 -4 9 -10z m105 -13 c0 -2 -9 -3 -20 -3 -11 0 -20 6 -20 13 0 11 5 11 20 3
11 -6 20 -12 20 -13z m688 -5 c29 -10 49 -21 46 -24 -7 -8 -104 24 -104 34 0
10 -2 11 58 -10z m717 8 c3 -5 1 -10 -4 -10 -6 0 -11 5 -11 10 0 6 2 10 4 10
3 0 8 -4 11 -10z m1955 -15 c0 -14 -4 -25 -10 -25 -5 0 -10 11 -10 25 0 14 5
25 10 25 6 0 10 -11 10 -25z m-4151 -31 c-17 -21 -21 -11 -8 22 10 23 13 25
16 11 3 -10 -1 -25 -8 -33z m1148 40 c-3 -3 -12 -4 -19 -1 -8 3 -5 6 6 6 11 1
17 -2 13 -5z m1154 -3 c-8 -5 -20 -7 -28 -4 -21 8 -15 13 15 13 20 0 23 -3 13
-9z m-1428 -19 c17 -1 27 -8 27 -17 0 -8 5 -15 10 -15 6 0 10 5 10 10 0 6 7
10 15 10 19 0 19 -30 1 -55 -13 -18 -15 -18 -46 8 -17 15 -26 27 -19 27 31 0
-5 14 -38 14 -20 1 -38 6 -40 12 -2 7 8 10 24 9 15 -1 40 -3 56 -3z m1597 4
c0 -2 -7 -6 -15 -10 -8 -3 -15 -1 -15 4 0 6 7 10 15 10 8 0 15 -2 15 -4z
m-1165 -21 c22 -4 47 -7 55 -7 23 -1 42 -20 35 -36 -4 -12 3 -14 40 -10 47 6
70 -8 41 -24 -9 -5 -16 -14 -16 -20 0 -18 31 -48 50 -48 10 0 23 -7 30 -15 15
-18 7 -19 -21 -4 -15 7 -24 7 -33 -1 -10 -8 -15 -7 -19 4 -3 8 -20 17 -37 21
-17 4 -43 13 -58 21 -15 8 -37 14 -50 14 -30 0 -24 22 8 30 20 5 14 9 -32 25
-33 11 -54 23 -52 30 3 7 -10 17 -28 23 l-33 11 40 -4 c22 -2 58 -7 80 -10z
m1524 4 c-18 -11 -39 -11 -39 0 0 5 12 9 26 9 18 0 22 -3 13 -9z m-1199 -18
c0 -13 9 -21 29 -26 16 -3 35 -13 41 -20 7 -8 28 -17 49 -21 20 -3 46 -13 59
-20 12 -8 22 -10 22 -5 0 4 15 1 34 -8 25 -12 31 -19 24 -28 -8 -10 -6 -13 6
-13 9 0 16 -5 16 -10 0 -12 -53 -1 -58 12 -2 4 -10 8 -18 8 -9 0 -12 5 -9 10
3 6 -2 10 -12 11 -34 1 -68 10 -77 19 -6 6 -27 10 -47 10 -21 0 -41 5 -44 10
-3 6 -16 10 -27 10 -12 0 -18 3 -15 7 4 3 2 12 -4 20 -9 10 -8 13 2 13 9 1 8
4 -4 11 -21 12 -13 29 14 29 12 0 19 -7 19 -19z m310 4 c11 -13 8 -14 -21 -9
-47 9 -60 24 -22 24 17 0 36 -7 43 -15z m-2155 -32 c-15 -13 -25 -27 -21 -30
8 -9 -15 -34 -25 -27 -5 3 -9 14 -9 25 0 11 4 17 10 14 5 -3 7 0 4 9 -4 9 5
20 23 29 40 21 52 8 18 -20z m345 27 c0 -5 -4 -10 -10 -10 -5 0 -10 5 -10 10
0 6 5 10 10 10 6 0 10 -4 10 -10z m471 0 c6 0 8 -4 5 -9 -8 -12 -46 -2 -46 11
0 6 7 7 16 4 9 -3 20 -6 25 -6z m1649 0 c0 -5 -7 -10 -15 -10 -8 0 -15 5 -15
10 0 6 7 10 15 10 8 0 15 -4 15 -10z m-220 -10 c0 -5 8 -10 18 -10 9 0 28 -10
42 -21 27 -22 26 -22 -39 -4 -11 3 -22 1 -26 -5 -6 -10 7 -14 33 -11 6 1 12
-3 12 -9 0 -5 -5 -10 -12 -10 -6 0 -4 -6 6 -13 17 -12 17 -14 2 -14 -16 0
-106 78 -106 92 0 3 12 2 26 -1 19 -5 25 -4 20 5 -4 6 -1 11 8 11 9 0 16 -4
16 -10z m890 0 c0 -5 -4 -10 -9 -10 -6 0 -13 5 -16 10 -3 6 1 10 9 10 9 0 16
-4 16 -10z m-3335 -22 c-12 -7 -21 -6 -28 2 -9 10 -8 12 6 7 9 -4 17 -2 17 4
0 6 5 7 11 3 8 -5 6 -10 -6 -16z m1980 -8 c2 -4 -7 -5 -20 -2 -14 2 -25 8 -25
12 0 10 38 1 45 -10z m676 10 c20 0 29 -5 29 -16 0 -11 -6 -14 -22 -8 -46 14
-68 24 -68 30 0 3 7 3 16 0 9 -3 29 -6 45 -6z m138 -37 c25 -54 4 -98 -36 -80
-13 6 -23 14 -23 19 0 12 14 10 28 -4 9 -9 15 -9 25 1 10 10 8 11 -7 5 -13 -5
-17 -4 -12 4 3 6 2 13 -4 17 -15 9 -12 25 5 25 27 0 16 18 -17 29 -25 9 -30
14 -19 20 18 12 46 -6 60 -36z m-1079 17 c0 -5 -9 -6 -20 -3 -11 3 -20 9 -20
13 0 5 9 6 20 3 11 -3 20 -9 20 -13z m902 -11 c10 0 20 -5 23 -10 4 -5 11 -7
16 -4 5 4 18 0 29 -8 18 -13 15 -14 -32 -9 -29 2 -60 10 -68 17 -8 7 -22 15
-30 19 -8 3 -1 4 15 1 17 -4 38 -6 47 -6z m-2692 -12 c0 -5 -11 -7 -25 -5 -17
4 -25 1 -25 -8 0 -8 -6 -14 -13 -14 -25 0 -28 14 -5 26 26 14 68 15 68 1z
m2516 -28 c3 -5 -1 -9 -9 -9 -20 0 -68 26 -61 33 7 7 62 -12 70 -24z m120 10
c39 -24 44 -33 13 -24 -15 5 -19 4 -15 -4 4 -6 13 -11 20 -11 8 0 19 -7 26
-15 20 -24 -23 -19 -45 5 -10 11 -25 20 -34 20 -13 0 -14 2 -2 9 12 8 12 12 2
25 -18 22 -5 20 35 -5z m-2431 -9 c3 -5 -3 -10 -14 -10 -10 0 -28 -3 -38 -6
-16 -6 -16 -5 2 9 23 19 41 21 50 7z m3565 -25 c0 -3 -8 -5 -18 -5 -10 0 -19
7 -19 14 0 11 5 13 19 5 10 -5 18 -12 18 -14z m-1310 -1 c0 -8 -4 -12 -10 -9
-5 3 -10 10 -10 16 0 5 5 9 10 9 6 0 10 -7 10 -16z m120 -6 c0 -6 -7 -7 -16
-4 -9 3 -21 6 -27 6 -7 0 -7 4 2 9 16 10 41 4 41 -11z m-2855 -26 c-7 -8 -45
10 -40 19 4 5 14 3 25 -3 11 -7 17 -14 15 -16z m421 8 c13 0 24 5 24 10 0 6 8
10 17 10 35 0 -13 -32 -51 -35 -20 -1 -36 -1 -36 1 0 1 3 10 7 20 4 11 8 13
11 6 2 -7 15 -12 28 -12z m961 4 c-3 -3 -12 -4 -19 -1 -8 3 -5 6 6 6 11 1 17
-2 13 -5z m1628 -4 c3 -5 2 -10 -4 -10 -5 0 -13 5 -16 10 -3 6 -2 10 4 10 5 0
13 -4 16 -10z m-960 -10 c3 -6 -1 -7 -9 -4 -18 7 -21 14 -7 14 6 0 13 -4 16
-10z m735 0 c0 -5 -7 -10 -15 -10 -8 0 -15 5 -15 10 0 6 7 10 15 10 8 0 15 -4
15 -10z m-1461 -9 c7 -5 10 -14 7 -20 -5 -8 -11 -7 -22 3 -24 24 -14 35 15 17z
m1086 -7 c36 -12 50 -13 60 -4 11 9 18 8 31 -5 9 -9 23 -14 31 -11 19 8 53
-11 53 -29 0 -19 -9 -19 -50 1 -18 9 -55 18 -82 19 -27 1 -55 8 -61 14 -6 6
-21 11 -33 11 -13 0 -26 5 -29 10 -9 15 28 12 80 -6z m1220 6 c8 -13 -5 -13
-25 0 -13 8 -13 10 2 10 9 0 20 -4 23 -10z m-2271 -15 c-4 -8 -8 -15 -10 -15
-2 0 -4 7 -4 15 0 8 4 15 10 15 5 0 7 -7 4 -15z m746 5 c13 -9 13 -10 0 -10
-8 0 -22 5 -30 10 -13 9 -13 10 0 10 8 0 22 -5 30 -10z m705 -10 c3 -5 2 -10
-4 -10 -5 0 -13 5 -16 10 -3 6 -2 10 4 10 5 0 13 -4 16 -10z m-2568 -16 c-3
-3 -12 -4 -19 -1 -8 3 -5 6 6 6 11 1 17 -2 13 -5z m2663 -4 c13 -9 13 -10 0
-10 -8 0 -22 5 -30 10 -13 9 -13 10 0 10 8 0 22 -5 30 -10z m-1621 -41 c-14
-9 -6 -12 21 -10 8 1 20 -7 26 -16 10 -16 7 -18 -17 -17 -46 2 -50 3 -44 13 3
5 1 12 -5 16 -15 9 -12 25 5 25 8 0 15 6 16 13 0 8 2 8 6 -2 3 -7 -1 -17 -8
-22z m1387 16 c14 -1 27 1 29 6 7 10 76 0 92 -14 22 -16 3 -28 -35 -21 -35 7
-36 6 -19 -10 19 -19 22 -36 7 -36 -5 0 -10 5 -10 10 0 7 -7 7 -21 -1 -15 -8
-24 -8 -32 0 -8 8 -4 11 13 11 22 0 23 1 5 20 -10 11 -23 20 -29 20 -6 1 -24
7 -41 15 -21 11 -23 13 -7 9 13 -3 35 -7 48 -9z m-698 -1 c12 -4 22 -10 22
-15 0 -15 -47 -10 -60 6 -14 17 -3 20 38 9z m312 -15 c0 -5 -4 -9 -10 -9 -5 0
-10 7 -10 16 0 8 5 12 10 9 6 -3 10 -10 10 -16z m603 -12 c9 -11 17 -24 17
-28 0 -4 10 -10 23 -12 12 -2 0 -5 -28 -5 -43 -1 -48 0 -33 12 20 15 14 26
-13 26 -20 0 -33 15 -24 30 8 12 36 1 58 -23z m-2639 5 c2 -4 0 -14 -5 -22 -8
-13 -10 -13 -18 0 -10 15 -6 30 9 30 5 0 11 -4 14 -8z m986 -2 c0 -5 -4 -10
-10 -10 -5 0 -10 5 -10 10 0 6 5 10 10 10 6 0 10 -4 10 -10z m785 -21 c11 -16
1 -19 -13 -3 -7 8 -8 14 -3 14 5 0 13 -5 16 -11z m595 -9 c0 -5 -4 -10 -10
-10 -5 0 -10 5 -10 10 0 6 5 10 10 10 6 0 10 -4 10 -10z m553 -7 c-7 -2 -19
-2 -25 0 -7 3 -2 5 12 5 14 0 19 -2 13 -5z m-43 -37 c8 -2 16 -9 18 -17 4 -23
-30 -17 -58 10 l-25 24 25 -7 c14 -4 32 -8 40 -10z m118 -14 c2 -7 -2 -10 -12
-6 -9 3 -16 11 -16 16 0 13 23 5 28 -10z m-2211 -14 c-3 -8 -6 -5 -6 6 -1 11
2 17 5 13 3 -3 4 -12 1 -19z m-784 -5 c4 -2 7 -9 7 -15 0 -7 -15 -9 -41 -5
-46 6 -54 11 -44 27 6 10 56 6 78 -7z m1874 11 c-3 -3 -12 -4 -19 -1 -8 3 -5
6 6 6 11 1 17 -2 13 -5z m393 -10 c0 -14 -81 -25 -94 -13 -6 5 -1 9 12 9 12 0
22 4 22 9 0 4 13 8 30 7 16 -1 30 -6 30 -12z m670 1 c11 -13 10 -14 -4 -9 -9
3 -16 10 -16 15 0 13 6 11 20 -6z m-930 -4 c0 -6 -4 -13 -10 -16 -5 -3 -10 1
-10 9 0 9 5 16 10 16 6 0 10 -4 10 -9z m740 -16 c0 -12 -5 -13 -17 -7 -10 5
-25 12 -33 15 -8 3 0 6 18 6 22 1 32 -4 32 -14z m1500 5 c0 -5 -7 -10 -16 -10
-8 0 -12 5 -9 10 3 6 10 10 16 10 5 0 9 -4 9 -10z m-3645 -24 c-3 -6 -8 -19
-11 -29 -9 -24 -37 -17 -39 10 -1 15 3 19 13 15 11 -4 14 -1 9 10 -4 12 -1 14
14 11 11 -3 17 -11 14 -17z m2439 16 c3 -5 -8 -9 -24 -10 -39 -1 -47 13 -10
16 16 1 31 -2 34 -6z m-689 -12 c3 -5 -1 -10 -9 -10 -9 0 -16 5 -16 10 0 6 4
10 9 10 6 0 13 -4 16 -10z m-991 -32 c-3 -4 -11 -5 -19 -2 -11 5 -12 9 -2 19
12 13 31 -1 21 -17z m1513 10 c-3 -8 -6 -5 -6 6 -1 11 2 17 5 13 3 -3 4 -12 1
-19z m-2907 0 c0 -8 -15 -13 -40 -13 -38 -1 -48 4 -33 18 12 12 73 8 73 -5z
m1900 -3 c-7 -8 -16 -15 -21 -15 -5 0 -9 7 -9 15 0 9 9 15 21 15 18 0 19 -2 9
-15z m130 -29 c-4 -4 -16 -4 -26 2 -16 9 -14 10 8 9 15 -1 23 -6 18 -11z
m-2130 -21 c-7 -8 -10 -21 -7 -29 4 -9 -2 -13 -18 -13 -19 0 -23 5 -23 28 1
16 5 26 9 23 5 -3 17 -1 26 5 23 12 29 6 13 -14z m98 7 c2 -7 -5 -12 -16 -12
-11 0 -22 -7 -26 -15 -3 -8 -13 -15 -23 -15 -13 0 -11 6 12 30 29 30 45 34 53
12z m4032 -2 c0 -5 -7 -7 -15 -4 -8 4 -15 8 -15 10 0 2 7 4 15 4 8 0 15 -4 15
-10z m-90 -10 c8 -5 11 -10 5 -10 -5 0 -17 5 -25 10 -8 5 -10 10 -5 10 6 0 17
-5 25 -10z m-3462 -13 c-13 -15 -38 -18 -38 -6 0 8 18 17 38 18 10 1 10 -2 0
-12z m2032 3 c0 -5 -7 -7 -15 -4 -8 4 -15 8 -15 10 0 2 7 4 15 4 8 0 15 -4 15
-10z m223 -7 c9 -3 17 -10 17 -15 0 -6 -8 -7 -17 -3 -10 4 -26 10 -35 12 -10
3 -18 10 -18 15 0 6 8 7 18 3 9 -4 25 -10 35 -12z m-1483 -3 c0 -5 -5 -10 -11
-10 -5 0 -7 5 -4 10 3 6 8 10 11 10 2 0 4 -4 4 -10z m-670 -37 c0 -8 -11 -13
-29 -13 -22 0 -30 5 -33 24 -4 22 -3 23 29 13 18 -6 33 -16 33 -24z m1660 7
c0 -6 -7 -10 -15 -10 -8 0 -15 2 -15 4 0 2 -3 12 -7 21 -5 15 -3 16 15 6 12
-7 22 -16 22 -21z m1677 14 c-3 -3 -12 -4 -19 -1 -8 3 -5 6 6 6 11 1 17 -2 13
-5z m-2664 -19 c-3 -9 -8 -14 -10 -11 -3 3 -2 9 2 15 9 16 15 13 8 -4z m1637
5 c0 -5 -4 -10 -10 -10 -5 0 -10 5 -10 10 0 6 5 10 10 10 6 0 10 -4 10 -10z
m-1733 -6 c-3 -3 -12 -4 -19 -1 -8 3 -5 6 6 6 11 1 17 -2 13 -5z m2453 -4 c12
-8 11 -10 -7 -10 -12 0 -25 5 -28 10 -8 13 15 13 35 0z m-3694 -26 c4 -14 2
-30 -4 -36 -9 -9 -10 -5 -7 12 2 13 0 29 -6 37 -8 9 -8 13 0 13 6 0 14 -12 17
-26z m2242 0 c7 -14 8 -23 2 -19 -15 9 -32 45 -22 45 5 0 14 -12 20 -26z m-76
-16 c-3 -12 -1 -19 4 -15 13 7 41 -10 31 -19 -4 -4 -17 -3 -30 3 -24 11 -34
53 -12 53 9 0 11 -7 7 -22z m1576 -5 c17 -3 32 -10 32 -15 0 -6 -10 -8 -22 -4
-13 3 -30 6 -39 6 -8 0 -24 7 -35 16 -18 15 -18 15 6 9 14 -4 40 -9 58 -12z
m-1343 -3 c3 -5 -1 -10 -10 -10 -9 0 -13 5 -10 10 3 6 8 10 10 10 2 0 7 -4 10
-10z m-1318 -6 c-3 -3 -12 -4 -19 -1 -8 3 -5 6 6 6 11 1 17 -2 13 -5z m193 -4
c0 -5 -7 -10 -16 -10 -8 0 -12 5 -9 10 3 6 10 10 16 10 5 0 9 -4 9 -10z m186
-15 c30 -16 25 -19 -13 -9 -13 4 -23 10 -23 15 0 12 3 11 36 -6z"/>
<path d="M101 3074 c0 -11 3 -14 6 -6 3 7 2 16 -1 19 -3 4 -6 -2 -5 -13z"/>
<path d="M4550 1820 c0 -11 4 -20 8 -20 4 0 8 9 8 20 0 11 -4 20 -8 20 -4 0
-8 -9 -8 -20z"/>
<path d="M4592 1818 c6 -18 28 -21 28 -4 0 9 -7 16 -16 16 -9 0 -14 -5 -12
-12z"/>
<path d="M4164 1806 c-4 -10 -2 -22 4 -28 8 -8 13 -7 18 6 4 10 2 22 -4 28 -8
8 -13 7 -18 -6z"/>
<path d="M4227 1813 c-14 -13 -6 -33 13 -33 13 0 20 7 20 20 0 19 -20 27 -33
13z"/>
<path d="M1688 1083 c6 -2 18 -2 25 0 6 3 1 5 -13 5 -14 0 -19 -2 -12 -5z"/>
<path d="M2049 5380 c23 -11 55 -30 71 -43 15 -13 65 -43 111 -67 81 -42 131
-77 188 -130 28 -27 141 -166 141 -174 0 -3 14 -26 31 -51 17 -25 42 -67 56
-93 14 -26 35 -58 47 -72 29 -32 126 -186 126 -199 0 -22 20 -10 21 12 0 21 1
21 10 -3 6 -14 8 -34 5 -44 -5 -20 41 -106 57 -106 12 0 8 28 -5 33 -7 3 -3 6
10 6 15 1 21 -3 16 -11 -4 -7 -3 -8 4 -4 14 8 82 -19 82 -33 0 -5 10 -9 23 -7
45 5 77 19 77 32 0 22 24 16 35 -8 7 -15 20 -24 40 -26 38 -4 55 -26 55 -71 0
-29 -5 -38 -25 -48 -18 -8 -25 -8 -25 0 0 6 -7 4 -16 -5 -19 -19 -11 -38 17
-38 11 0 22 -7 25 -15 4 -8 15 -15 25 -15 14 0 20 -10 25 -40 6 -35 10 -40 33
-40 15 0 32 5 39 12 9 9 12 8 12 -6 0 -23 32 -13 71 22 30 26 38 51 17 53 -7
1 -2 4 12 8 31 8 34 44 5 50 -11 2 -23 8 -27 14 -5 8 -13 8 -30 0 -42 -20 -59
-23 -78 -13 -15 8 -23 5 -38 -15 -11 -14 -23 -21 -26 -16 -4 5 -2 12 4 16 5 3
10 16 10 27 0 20 4 20 65 14 46 -5 65 -3 65 5 0 7 -9 9 -25 5 -20 -5 -25 -3
-25 14 0 14 7 20 23 20 13 0 32 7 43 15 17 13 17 14 2 15 -22 0 -22 3 -3 40
11 22 12 30 2 33 -6 3 -2 6 9 6 12 1 25 8 28 17 5 12 14 15 37 10 17 -3 28 -2
24 4 -3 5 4 17 15 28 20 19 20 21 4 61 -9 22 -20 41 -24 41 -5 0 -6 9 -3 20 3
11 9 20 14 20 20 0 7 38 -16 48 -28 13 -34 49 -10 58 8 4 15 17 15 30 0 21 4
24 40 24 30 0 40 4 40 16 0 13 3 14 13 5 8 -6 17 -8 20 -4 13 12 7 23 -13 23
-12 0 -20 7 -20 18 0 9 -3 27 -6 40 -5 19 -2 22 20 22 24 0 26 4 26 40 0 33 3
40 20 40 25 0 25 0 -2 55 l-22 45 22 22 22 22 0 -32 c0 -31 2 -32 41 -32 l41
0 -2 43 c-4 101 -6 97 54 97 30 0 57 4 60 9 3 5 -3 20 -14 34 -11 14 -20 30
-20 35 0 5 -8 13 -17 16 -12 5 -14 9 -5 18 9 9 6 19 -15 40 l-27 28 -885 0
-886 0 44 -20z m1486 -530 c3 -6 -4 -10 -17 -10 -18 0 -20 2 -8 10 19 12 18
12 25 0z m-50 -80 c4 -6 -5 -10 -19 -10 -14 0 -26 5 -26 10 0 6 9 10 19 10 11
0 23 -4 26 -10z"/>
<path d="M3863 5393 c32 -3 50 -9 54 -20 10 -24 56 -68 87 -81 22 -10 27 -18
24 -37 -6 -27 5 -50 24 -50 7 0 14 -10 16 -22 2 -13 10 -23 18 -23 8 0 14 -6
14 -14 0 -8 6 -17 13 -19 9 -4 9 -8 -2 -15 -8 -6 -11 -17 -7 -27 4 -13 2 -16
-9 -11 -11 4 -15 -1 -15 -19 0 -23 4 -25 48 -25 59 0 72 -12 72 -67 0 -24 5
-43 11 -43 6 0 31 -14 56 -31 34 -24 47 -28 53 -19 6 9 10 7 15 -9 3 -11 13
-21 21 -21 8 0 14 -4 14 -10 0 -19 49 -23 75 -6 13 9 33 16 45 16 24 0 26 18
5 46 -8 10 -15 26 -15 35 0 12 -7 15 -25 11 -22 -4 -25 -1 -25 28 0 26 3 31
23 30 30 -3 40 -1 57 10 12 7 12 12 -5 29 -24 27 -13 37 24 21 28 -11 48 -42
43 -64 -2 -5 6 -15 18 -23 11 -8 20 -21 20 -30 0 -10 6 -14 19 -10 13 3 18 1
14 -8 -3 -8 4 -15 19 -17 18 -2 22 -9 20 -27 -3 -35 24 -71 53 -71 14 0 30 -9
37 -20 14 -23 28 -26 28 -7 0 7 9 20 19 29 14 12 19 26 16 47 -5 35 9 48 30
31 11 -9 15 -9 16 -1 1 6 2 17 3 24 0 6 18 13 39 15 22 2 37 8 36 15 -7 58 -3
62 86 82 46 10 82 21 80 25 -9 14 44 40 80 40 20 0 45 5 56 10 13 7 19 7 19 0
0 -5 11 -10 24 -10 14 0 28 -4 31 -10 3 -5 17 -10 30 -10 14 0 25 -7 28 -17 3
-10 5 66 6 170 l1 187 -792 -2 c-436 -1 -771 -3 -745 -5z m557 -242 c0 -6 -4
-13 -10 -16 -5 -3 -10 1 -10 9 0 9 5 16 10 16 6 0 10 -4 10 -9z m40 -51 c13
-13 20 -33 20 -60 0 -45 1 -44 -35 -28 l-26 12 21 16 22 17 -31 13 c-32 13
-41 34 -18 43 21 9 26 8 47 -13z m760 10 c0 -5 -4 -10 -10 -10 -5 0 -10 5 -10
10 0 6 5 10 10 10 6 0 10 -4 10 -10z"/>
<path d="M4054 5135 c-6 -15 2 -35 14 -35 4 0 13 4 21 9 12 8 12 12 -2 25 -19
20 -26 20 -33 1z"/>
<path d="M3938 5113 c7 -3 16 -2 19 1 4 3 -2 6 -13 5 -11 0 -14 -3 -6 -6z"/>
<path d="M3760 4940 c0 -13 7 -20 20 -20 23 0 26 10 8 28 -18 18 -28 15 -28
-8z"/>
<path d="M435 4860 c3 -5 8 -10 11 -10 2 0 4 5 4 10 0 6 -5 10 -11 10 -5 0 -7
-4 -4 -10z"/>
<path d="M516 4845 c-3 -8 -1 -15 4 -15 13 0 22 18 11 24 -5 3 -11 -1 -15 -9z"/>
<path d="M618 4803 c7 -3 16 -2 19 1 4 3 -2 6 -13 5 -11 0 -14 -3 -6 -6z"/>
<path d="M1180 4800 c0 -5 5 -10 11 -10 5 0 7 5 4 10 -3 6 -8 10 -11 10 -2 0
-4 -4 -4 -10z"/>
<path d="M4492 4788 c-7 -7 -12 -18 -12 -26 0 -12 -13 -13 -72 -8 l-73 7 33
-31 c17 -16 32 -34 32 -40 0 -5 5 -10 10 -10 6 0 10 -18 10 -40 0 -26 5 -40
13 -40 7 0 19 -15 26 -32 13 -30 14 -31 18 -10 5 27 5 27 52 -3 32 -21 37 -30
33 -52 -8 -43 20 -23 52 37 19 35 25 55 18 58 -7 2 -12 21 -12 43 0 56 -34
119 -64 119 -15 0 -26 7 -29 20 -6 23 -18 25 -35 8z"/>
<path d="M855 4779 c-4 -6 -4 -13 0 -17 4 -4 10 -2 12 5 2 7 12 9 21 6 15 -4
15 -3 2 6 -19 14 -27 14 -35 0z"/>
<path d="M380 4752 c0 -5 7 -13 16 -16 25 -10 84 -7 84 4 0 6 -15 10 -34 10
-19 0 -41 3 -50 6 -9 3 -16 2 -16 -4z"/>
<path d="M1 4589 c-1 -9 7 -31 16 -50 17 -32 18 -32 21 -11 2 13 -3 29 -11 35
-8 7 -17 19 -20 27 -5 13 -6 13 -6 -1z"/>
<path d="M1533 4555 c0 -27 2 -38 4 -22 2 15 2 37 0 50 -2 12 -4 0 -4 -28z"/>
<path d="M1 4343 c-1 -31 3 -43 13 -43 22 0 30 20 13 33 -8 7 -17 21 -20 32
-3 11 -5 1 -6 -22z"/>
<path d="M1523 4275 c0 -44 2 -61 4 -37 2 23 2 59 0 80 -2 20 -4 1 -4 -43z"/>
<path d="M1600 4279 c0 -11 4 -18 10 -14 5 3 7 12 3 20 -7 21 -13 19 -13 -6z"/>
<path d="M1648 4283 c6 -2 12 -13 12 -23 0 -10 5 -22 10 -25 6 -3 10 5 10 18
0 22 -18 39 -38 36 -4 0 -1 -3 6 -6z"/>
<path d="M3100 4271 c0 -6 5 -13 10 -16 6 -3 10 1 10 9 0 9 -4 16 -10 16 -5 0
-10 -4 -10 -9z"/>
<path d="M0 4171 c0 -27 3 -29 53 -34 28 -2 56 -3 60 0 10 6 -79 63 -98 63
-10 0 -15 -10 -15 -29z"/>
<path d="M3200 4184 c0 -8 5 -12 10 -9 6 3 10 10 10 16 0 5 -4 9 -10 9 -5 0
-10 -7 -10 -16z"/>
<path d="M2 4018 l3 -53 43 -3 c28 -2 42 -8 42 -18 0 -8 1 -17 3 -21 1 -4 -19
-6 -45 -4 l-48 3 0 -35 c0 -32 3 -35 38 -43 20 -4 39 -8 42 -9 28 -6 80 -31
80 -37 0 -4 7 -5 15 -1 9 3 22 -2 29 -12 12 -16 63 -28 171 -39 11 -1 26 -5
33 -10 7 -4 56 -10 109 -11 53 -2 101 -9 109 -16 8 -6 27 -9 42 -6 39 8 112
-26 112 -51 0 -20 7 -22 115 -37 22 -4 49 -10 60 -15 25 -12 147 -29 158 -23
4 3 5 14 1 25 -4 15 -3 18 6 13 9 -6 9 -2 0 16 -16 31 -36 42 -77 44 -41 1
-50 11 -35 35 15 24 4 26 -28 3 -17 -12 -25 -13 -28 -5 -2 7 -13 12 -25 12
-18 0 -97 61 -97 74 0 3 8 6 18 9 9 2 -14 2 -53 -2 -38 -3 -86 -5 -105 -4 -73
2 -130 8 -130 14 0 3 -13 4 -28 1 -18 -2 -35 2 -45 12 -10 11 -35 16 -74 17
-65 2 -97 14 -89 35 9 22 -25 33 -74 24 -44 -9 -116 -3 -106 8 3 3 1 11 -6 19
-20 25 5 37 40 19 17 -9 41 -16 54 -16 23 1 23 1 3 16 -17 13 -18 16 -5 25 8
5 26 7 40 4 58 -14 128 -14 133 -1 7 18 -39 37 -97 41 -24 2 -48 5 -53 8 -15
9 -68 11 -81 4 -20 -13 -152 3 -152 19 0 7 -5 16 -11 19 -7 5 -9 -11 -7 -47z"/>
<path d="M2000 4003 c0 -8 5 -13 12 -11 18 6 21 25 3 25 -8 0 -15 -7 -15 -14z"/>
<path d="M5090 4006 c-39 -20 -102 -56 -137 -78 -27 -16 -36 -17 -55 -7 -19 9
-21 9 -11 -2 13 -13 0 -39 -19 -39 -6 0 -5 7 2 15 10 13 9 15 -9 15 -31 0 -61
-18 -61 -36 0 -13 -2 -13 -13 -2 -7 7 -16 21 -20 30 -10 28 -52 33 -81 10 -19
-14 -22 -22 -13 -31 8 -8 7 -11 -5 -11 -40 0 -45 -63 -6 -73 16 -4 18 -11 12
-29 -6 -20 -5 -21 10 -9 9 8 19 12 22 9 4 -5 -37 -40 -232 -203 -23 -19 -64
-52 -91 -72 -28 -21 -75 -61 -107 -89 l-56 -51 39 -18 40 -18 35 39 c50 54 45
50 111 100 32 25 72 58 87 75 16 16 34 29 40 29 12 0 47 32 179 163 27 26 53
47 59 47 5 0 10 5 10 10 0 6 6 10 13 10 6 0 28 16 47 36 19 19 54 46 77 60 23
13 57 38 75 54 18 17 36 30 40 30 10 0 51 40 46 45 -2 3 -15 -2 -28 -9z m-263
-145 c1 -11 -6 -21 -18 -24 -22 -6 -23 -3 -7 23 16 25 23 25 25 1z"/>
<path d="M5361 3939 c-25 -23 -39 -29 -57 -25 -14 4 -24 2 -24 -4 0 -15 -16
-12 -34 6 -20 20 -66 6 -114 -34 -18 -15 -62 -49 -99 -77 -36 -27 -75 -58 -85
-68 -11 -10 -50 -44 -86 -75 -76 -64 -352 -340 -352 -352 0 -4 -7 -13 -15 -20
-8 -7 -15 -19 -15 -27 0 -8 -11 -24 -25 -35 -21 -16 -25 -28 -25 -73 0 -53 1
-55 48 -89 26 -19 58 -45 70 -58 13 -13 30 -22 37 -20 7 1 15 -10 18 -26 4
-19 12 -28 26 -29 12 -1 21 2 21 6 0 4 11 13 24 19 25 11 46 0 46 -25 0 -7 11
-13 25 -13 14 0 25 5 25 10 0 6 9 10 19 10 11 0 23 5 26 10 3 6 20 10 37 10
21 0 31 -6 35 -20 6 -24 19 -25 65 -6 45 19 61 40 55 72 -4 20 1 27 22 35 14
6 38 25 52 42 29 34 27 34 44 -18 6 -20 45 -18 71 3 11 10 27 39 35 65 l14 48
12 -48 c7 -26 13 -65 13 -85 0 -38 5 -43 34 -32 12 5 15 14 10 38 -5 28 -1 35
20 50 14 9 26 12 26 6 0 -5 9 -10 20 -10 20 0 20 7 20 435 0 239 -1 435 -2
435 -2 0 -18 -14 -37 -31z"/>
<path d="M3136 3943 c-6 -6 -2 -30 20 -109 l15 -51 72 -3 c40 -2 96 -3 126 -2
29 2 58 -1 65 -6 19 -16 124 -23 132 -10 4 6 2 14 -4 16 -7 2 -19 10 -26 18
-8 8 -20 14 -26 14 -6 0 -18 6 -25 14 -14 14 -103 32 -112 23 -6 -7 -43 30
-43 43 0 6 -22 10 -49 10 -31 0 -53 5 -61 15 -7 8 -15 13 -19 10 -4 -2 -19 2
-34 10 -14 7 -28 11 -31 8z"/>
<path d="M941 3831 c-8 -5 -7 -12 2 -25 11 -16 17 -17 36 -7 12 7 19 16 16 20
-7 12 -41 20 -54 12z"/>
<path d="M0 3620 c0 -5 9 -10 21 -10 11 0 17 5 14 10 -3 6 -13 10 -21 10 -8 0
-14 -4 -14 -10z"/>
<path d="M40 3594 c-25 -7 -39 -13 -32 -13 6 -1 12 -10 12 -22 0 -11 -4 -17
-10 -14 -17 11 -11 -7 8 -21 25 -19 48 -19 32 1 -10 13 -9 15 9 15 12 0 21 6
21 15 0 8 -8 15 -17 15 -15 0 -16 2 -3 9 8 6 17 8 21 5 4 -2 10 0 13 5 10 16
-7 18 -54 5z"/>
<path d="M1126 3585 c-3 -10 -5 -19 -4 -19 2 -1 16 -7 31 -14 34 -15 140 -17
117 -2 -8 5 -11 10 -7 10 5 0 20 -9 35 -20 18 -15 28 -18 36 -10 19 19 12 35
-19 43 -64 18 -82 18 -123 4 -42 -14 -44 -14 -51 6 -7 19 -8 19 -15 2z"/>
<path d="M111 3571 c-20 -13 -3 -17 69 -18 41 0 49 1 23 4 -24 2 -43 8 -43 14
0 11 -30 12 -49 0z"/>
<path d="M1503 3535 c0 -27 2 -38 4 -22 2 15 2 37 0 50 -2 12 -4 0 -4 -28z"/>
<path d="M266 3546 c3 -9 13 -16 22 -16 8 0 13 1 11 3 -2 1 -12 9 -22 16 -15
12 -17 12 -11 -3z"/>
<path d="M360 3521 c0 -13 26 -32 33 -24 8 7 -11 33 -24 33 -5 0 -9 -4 -9 -9z"/>
<path d="M310 3490 c-12 -8 -10 -10 8 -10 13 0 20 4 17 10 -7 12 -6 12 -25 0z"/>
<path d="M535 3482 c-17 -12 -18 -52 -1 -52 8 0 17 4 20 9 9 14 -8 51 -19 43z"/>
<path d="M0 3429 c0 -23 4 -38 10 -34 11 7 10 75 -2 75 -4 0 -8 -18 -8 -41z"/>
<path d="M640 3450 c0 -6 -7 -10 -15 -10 -8 0 -15 -4 -15 -10 0 -13 3 -13 34
4 21 10 23 15 11 19 -8 4 -15 2 -15 -3z"/>
<path d="M3918 3323 c-58 -52 -137 -137 -132 -142 2 -3 10 1 16 7 17 17 37 15
105 -13 94 -38 153 -20 166 50 4 22 0 34 -16 47 -11 10 -24 19 -29 19 -4 1
-12 3 -18 4 -5 1 -18 3 -27 4 -17 2 -17 3 -2 14 14 10 15 16 4 30 -17 23 -19
22 -67 -20z"/>
<path d="M2782 3300 c0 -14 2 -19 5 -12 2 6 2 18 0 25 -3 6 -5 1 -5 -13z"/>
<path d="M2791 3204 c0 -11 3 -14 6 -6 3 7 2 16 -1 19 -3 4 -6 -2 -5 -13z"/>
<path d="M3830 3114 c0 -8 5 -12 10 -9 6 4 8 11 5 16 -9 14 -15 11 -15 -7z"/>
<path d="M766 3065 c7 -16 57 -38 77 -33 8 1 -7 13 -33 25 -33 14 -47 17 -44
8z"/>
<path d="M530 3022 c0 -14 11 -21 26 -15 8 3 11 9 8 14 -7 11 -34 12 -34 1z"/>
<path d="M3880 2970 c0 -5 5 -10 10 -10 6 0 10 5 10 10 0 6 -4 10 -10 10 -5 0
-10 -4 -10 -10z"/>
<path d="M294 2695 c-1 -39 11 -47 20 -12 9 34 7 47 -6 47 -8 0 -13 -14 -14
-35z"/>
<path d="M2430 2710 c-9 -16 -8 -22 4 -26 21 -8 36 3 36 27 0 25 -26 25 -40
-1z"/>
<path d="M2674 2696 c-7 -19 3 -36 22 -36 10 0 14 8 12 22 -4 26 -26 36 -34
14z"/>
<path d="M20 2672 c0 -7 -5 -10 -10 -7 -7 5 -10 -19 -8 -72 3 -65 6 -78 21
-81 15 -3 17 5 17 70 0 40 -5 80 -10 88 -7 11 -10 11 -10 2z"/>
<path d="M230 2635 c0 -41 26 -49 36 -11 7 29 -1 46 -22 46 -9 0 -14 -11 -14
-35z"/>
<path d="M1474 2495 c0 -60 1 -84 3 -52 2 32 2 81 0 110 -2 29 -3 3 -3 -58z"/>
<path d="M2697 2583 c-2 -5 -1 -19 4 -33 4 -15 7 -18 8 -8 1 9 4 23 7 32 6 16
-11 23 -19 9z"/>
<path d="M223 2461 c1 -88 4 -121 13 -121 16 0 26 83 22 170 -2 51 -7 65 -20
68 -14 3 -16 -10 -15 -117z"/>
<path d="M502 2457 c-18 -21 -17 -109 1 -142 16 -30 16 -29 17 63 0 50 -2 92
-4 92 -2 0 -8 -6 -14 -13z"/>
<path d="M5260 2455 c-9 -11 -10 -15 -1 -15 7 0 19 -7 27 -15 9 -8 24 -15 35
-15 10 0 19 7 19 15 0 8 5 15 10 15 6 0 10 7 10 15 0 11 -12 15 -44 15 -26 0
-48 -6 -56 -15z"/>
<path d="M5381 2410 c6 -16 13 -30 15 -30 2 0 4 14 4 30 0 20 -5 30 -14 30
-12 0 -13 -6 -5 -30z"/>
<path d="M431 2394 c0 -11 3 -14 6 -6 3 7 2 16 -1 19 -3 4 -6 -2 -5 -13z"/>
<path d="M4266 2379 c-8 -12 -19 -18 -24 -15 -14 8 -37 -23 -26 -34 10 -10 84
44 84 61 0 16 -18 10 -34 -12z"/>
<path d="M572 2305 c0 -16 2 -22 5 -12 2 9 2 23 0 30 -3 6 -5 -1 -5 -18z"/>
<path d="M17 2250 c-13 -16 -17 -40 -17 -116 0 -56 4 -93 9 -89 5 3 13 0 17
-6 5 -9 11 -7 21 6 7 11 13 15 13 9 0 -5 4 -2 10 6 6 9 5 20 -3 29 -10 12 -9
13 2 6 10 -6 12 -4 5 6 -4 8 -7 25 -6 39 1 14 -2 39 -7 55 -8 27 -9 24 -10
-27 -1 -51 -13 -79 -28 -65 -3 3 0 41 5 84 6 43 10 79 8 80 -1 1 -10 -7 -19
-17z"/>
<path d="M310 2250 c0 -5 5 -10 10 -10 6 0 10 5 10 10 0 6 -4 10 -10 10 -5 0
-10 -4 -10 -10z"/>
<path d="M1235 2250 c-3 -5 3 -10 15 -10 12 0 18 5 15 10 -3 6 -10 10 -15 10
-5 0 -12 -4 -15 -10z"/>
<path d="M445 2230 c-15 -6 -7 -9 29 -9 50 -1 58 7 15 14 -13 2 -33 0 -44 -5z"/>
<path d="M871 2214 c0 -11 3 -14 6 -6 3 7 2 16 -1 19 -3 4 -6 -2 -5 -13z"/>
<path d="M1280 2214 c0 -14 3 -14 15 -4 8 7 15 14 15 16 0 2 -7 4 -15 4 -8 0
-15 -7 -15 -16z"/>
<path d="M2416 2203 c-6 -14 -5 -15 5 -6 7 7 10 15 7 18 -3 3 -9 -2 -12 -12z"/>
<path d="M505 2201 c-3 -5 -20 -7 -39 -4 -26 4 -35 1 -40 -13 -4 -9 -2 -21 5
-24 8 -6 7 -9 -2 -13 -11 -3 -9 -9 6 -21 30 -23 37 -19 30 14 -4 20 -3 30 5
30 6 0 9 -4 6 -9 -3 -5 0 -11 8 -14 8 -3 17 7 24 29 10 33 9 43 -3 25z"/>
<path d="M900 2201 c0 -5 5 -13 10 -16 6 -3 10 -2 10 4 0 5 -4 13 -10 16 -5 3
-10 2 -10 -4z"/>
<path d="M1233 2194 c-7 -19 2 -28 22 -21 19 8 19 23 0 31 -9 3 -18 -1 -22
-10z"/>
<path d="M1375 2199 c30 -18 31 -19 15 -30 -12 -7 -10 -8 7 -6 12 2 25 6 28 9
8 7 -16 24 -45 32 -23 6 -23 6 -5 -5z"/>
<path d="M387 2193 c-4 -3 -7 -11 -7 -17 0 -6 5 -5 12 2 6 6 9 14 7 17 -3 3
-9 2 -12 -2z"/>
<path d="M1618 2113 c7 -3 16 -2 19 1 4 3 -2 6 -13 5 -11 0 -14 -3 -6 -6z"/>
<path d="M1766 2111 c-4 -5 3 -7 14 -4 23 6 26 13 6 13 -8 0 -17 -4 -20 -9z"/>
<path d="M1905 2110 c-16 -7 -17 -9 -3 -9 9 -1 20 4 23 9 7 11 7 11 -20 0z"/>
<path d="M490 2086 c0 -9 5 -16 10 -16 6 0 10 4 10 9 0 6 -4 13 -10 16 -5 3
-10 -1 -10 -9z"/>
<path d="M2128 2083 c7 -3 16 -2 19 1 4 3 -2 6 -13 5 -11 0 -14 -3 -6 -6z"/>
<path d="M384 2068 c-3 -5 -2 -22 1 -39 l7 -31 14 27 c8 15 14 33 14 39 0 14
-28 17 -36 4z"/>
<path d="M870 2060 c0 -13 7 -20 20 -20 14 0 20 7 20 23 0 18 -2 19 -10 7 -6
-10 -10 -11 -10 -2 0 6 -4 12 -10 12 -5 0 -10 -9 -10 -20z"/>
<path d="M350 2010 c0 -5 7 -10 16 -10 8 0 12 5 9 10 -3 6 -10 10 -16 10 -5 0
-9 -4 -9 -10z"/>
<path d="M55 1991 c-3 -12 -11 -21 -16 -21 -5 0 -9 -7 -9 -15 0 -13 4 -14 21
-5 25 14 35 38 21 52 -7 7 -12 3 -17 -11z"/>
<path d="M1 1914 c0 -11 3 -14 6 -6 3 7 2 16 -1 19 -3 4 -6 -2 -5 -13z"/>
<path d="M3645 773 c-17 -12 -18 -15 -5 -23 8 -5 20 -10 25 -10 15 1 47 28 38
32 -25 14 -41 14 -58 1z"/>
<path d="M3500 645 c-8 -9 -8 -15 -2 -15 12 0 26 19 19 26 -2 2 -10 -2 -17
-11z"/>
<path d="M3355 610 c-35 -6 -22 -19 28 -27 18 -3 37 -8 42 -12 6 -4 24 -5 40
-1 28 5 29 7 10 17 -11 6 -32 9 -47 7 -15 -1 -31 3 -35 10 -5 7 -20 10 -38 6z"/>
<path d="M3565 601 c3 -6 -2 -14 -12 -19 -13 -8 -21 -6 -30 6 -14 19 -17 5 -4
-17 7 -12 13 -12 40 0 35 15 39 24 15 33 -8 3 -12 2 -9 -3z"/>
<path d="M3508 463 c7 -3 16 -2 19 1 4 3 -2 6 -13 5 -11 0 -14 -3 -6 -6z"/>
<path d="M3915 430 c3 -5 8 -10 11 -10 2 0 4 5 4 10 0 6 -5 10 -11 10 -5 0 -7
-4 -4 -10z"/>
<path d="M3968 423 c6 -2 18 -2 25 0 6 3 1 5 -13 5 -14 0 -19 -2 -12 -5z"/>
<path d="M3450 391 c0 -5 5 -13 10 -16 6 -3 10 -2 10 4 0 5 -4 13 -10 16 -5 3
-10 2 -10 -4z"/>
<path d="M3650 350 c0 -11 5 -20 10 -20 6 0 10 9 10 20 0 11 -4 20 -10 20 -5
0 -10 -9 -10 -20z"/>
<path d="M4178 293 c7 -3 16 -2 19 1 4 3 -2 6 -13 5 -11 0 -14 -3 -6 -6z"/>
<path d="M4198 273 c7 -3 16 -2 19 1 4 3 -2 6 -13 5 -11 0 -14 -3 -6 -6z"/>
<path d="M4390 251 c20 -12 141 -43 146 -38 6 6 -122 47 -144 47 -14 -1 -15
-2 -2 -9z"/>
<path d="M4620 160 c0 -5 5 -10 11 -10 5 0 7 5 4 10 -3 6 -8 10 -11 10 -2 0
-4 -4 -4 -10z"/>
<path d="M4765 121 c-7 -13 27 -31 57 -30 l23 0 -22 11 c-13 6 -23 15 -23 20
0 11 -27 10 -35 -1z"/>
<path d="M4860 51 c0 -6 6 -11 13 -11 6 0 23 -3 37 -6 18 -4 21 -3 10 4 -27
17 -60 24 -60 13z"/>
</g>
</svg>
